<svg width="24" height="24" viewBox="0 0 24 24" fill="none" xmlns="http://www.w3.org/2000/svg" stroke="currentColor" stroke-width="1.6" stroke-linecap="round" stroke-linejoin="round">
  <circle cx="12" cy="12" r="3" />
  <path d="M19.4 15a1.7 1.7 0 0 0 .34 1.87l.06.06a2 2 0 1 1-2.83 2.83l-.06-.06a1.7 1.7 0 0 0-1.87-.34 1.7 1.7 0 0 0-1 1.54V21a2 2 0 1 1-4 0v-.1a1.7 1.7 0 0 0-1-1.54 1.7 1.7 0 0 0-1.87.34l-.06.06a2 2 0 1 1-2.83-2.83l.06-.06A1.7 1.7 0 0 0 4.6 15a1.7 1.7 0 0 0-1.54-1H3a2 2 0 1 1 0-4h.1a1.7 1.7 0 0 0 1.54-1 1.7 1.7 0 0 0-.34-1.87l-.06-.06a2 2 0 1 1 2.83-2.83l.06.06A1.7 1.7 0 0 0 9 4.6a1.7 1.7 0 0 0 1-1.54V3a2 2 0 1 1 4 0v.1a1.7 1.7 0 0 0 1 1.54 1.7 1.7 0 0 0 1.87-.34l.06-.06a2 2 0 1 1 2.83 2.83l-.06.06A1.7 1.7 0 0 0 19.4 9a1.7 1.7 0 0 0 1.54 1H21a2 2 0 1 1 0 4h-.1a1.7 1.7 0 0 0-1.54 1Z" />
</svg>
