<?xml version="1.0" encoding="UTF-8" standalone="no"?>
<!-- Created with Inkscape (http://www.inkscape.org/) -->

<svg
   width="68.882179mm"
   height="68.832275mm"
   viewBox="0 0 68.882179 68.832275"
   version="1.1"
   id="svg1"
   xml:space="preserve"
   xmlns="http://www.w3.org/2000/svg"
   xmlns:svg="http://www.w3.org/2000/svg"><defs
     id="defs1" /><g
     id="layer1"
     style="display:inline;mix-blend-mode:normal"
     transform="translate(-57.676069,-93.021077)"><g
       id="g20072"><g
         id="g20052"
         transform="matrix(1,0,0,0.89973406,-385.75558,57.690375)"><path
           style="fill:#1b3858;fill-opacity:1"
           d="m 477.41653,115.72606 c -0.16835,-0.0333 -0.85415,-0.36699 -1.524,-0.74142 -0.66985,-0.37443 -1.9799,-1.10059 -2.91123,-1.61369 -0.93134,-0.51309 -2.05529,-1.13269 -2.49767,-1.37688 -0.44238,-0.24419 -1.92828,-1.06293 -3.302,-1.81941 -2.57042,-1.4155 -12.73094,-7.04771 -19.38143,-10.74357 -2.06824,-1.14937 -3.81217,-2.15516 -3.87541,-2.23507 -0.53814,-0.68007 -0.49216,1.14897 -0.49216,-19.57631 0,-18.75366 0,-18.75366 0.24968,-19.20439 0.33387,-0.60271 -0.0924,-0.34015 6.14265,-3.78375 1.75861,-0.97128 6.83439,-3.80378 10.541,-5.88233 1.35044,-0.75727 3.10304,-1.73875 3.89467,-2.18104 0.79163,-0.4423 1.82033,-1.02285 2.286,-1.29011 7.26014,-4.16687 10.73784,-6.01305 11.32145,-6.01015 0.50142,0.002 0.42132,-0.0361 3.49521,1.68437 2.80962,1.57255 10.84573,6.04275 12.192,6.78198 0.65194,0.35796 2.32834,1.28897 3.72534,2.0689 4.63975,2.59033 10.13346,5.65095 12.23075,6.81393 2.29058,1.27016 2.52941,1.4725 2.70512,2.29179 0.12952,0.60395 0.1299,36.98758 3.8e-4,37.45403 -0.19397,0.6986 -0.34438,0.79621 -6.46959,4.1989 -1.78008,0.98888 -4.28242,2.39057 -8.17033,4.57666 -2.51006,1.41135 -10.26627,5.70566 -16.97567,9.39876 -2.20333,1.2128 -2.50164,1.32415 -3.18476,1.1888 z m 0.1791,-11.14313 c 0,-9.18945 0,-9.18945 -1.7661,-7.1755 -2.56381,2.92362 -4.98596,5.69839 -6.38788,7.31784 -0.48698,0.56255 -0.48698,0.56255 -0.16187,0.889 0.17881,0.17955 1.58368,1.6409 3.12194,3.24745 3.238,3.38176 4.84584,4.91067 5.1642,4.91067 0.0163,0 0.0297,-4.13526 0.0297,-9.18946 z m 1.02265,8.9402 c 0.58135,-0.38707 8.16078,-8.14437 8.10754,-8.29779 -0.0157,-0.0452 -0.96198,-1.13862 -2.10286,-2.42977 -1.14088,-1.29115 -2.6657,-3.01669 -3.38848,-3.83453 -0.72278,-0.81784 -1.69193,-1.92514 -2.15366,-2.46065 -0.46173,-0.53552 -0.87049,-0.98637 -0.90835,-1.00189 -0.0379,-0.0155 -0.0688,4.08975 -0.0688,9.12283 0,5.03308 0.0316,9.15106 0.0702,9.15106 0.0386,0 0.23861,-0.11217 0.4445,-0.24926 z m -4.28886,-1.80391 c -0.22589,-0.24448 -1.42377,-1.5113 -2.66196,-2.81517 -1.23818,-1.30386 -2.44159,-2.57472 -2.67424,-2.82412 -0.423,-0.45345 -0.423,-0.45345 -1.9294,0.30068 -1.14936,0.57539 -1.47948,0.77549 -1.3928,0.84422 0.22393,0.17757 8.89421,4.93853 8.99403,4.93873 0.0413,9e-5 -0.10974,-0.19987 -0.33563,-0.44434 z m 8.59132,-0.54256 c 5.14023,-2.7737 7.15905,-3.9206 7.06276,-4.01237 -1.39801,-1.33255 -2.80255,-1.49958 -3.82784,-0.45522 -3.26195,3.32265 -5.26506,5.45465 -5.1249,5.45465 0.0334,0 0.88391,-0.44418 1.88998,-0.98706 z m -16.51268,-5.06059 c 0.75487,-0.39251 1.47256,-0.74701 1.59488,-0.78779 0.21708,-0.0724 0.18393,-0.11553 -1.38622,-1.80518 -0.88474,-0.95208 -1.98635,-2.1562 -2.44802,-2.67584 -0.89704,-1.00967 -0.96628,-1.06481 -0.96662,-0.76971 -2.2e-4,0.18566 -0.71659,4.74809 -0.80351,5.11736 -0.038,0.16158 0.0684,0.24776 0.82453,0.66754 0.47751,0.26511 1.03965,0.58855 1.2492,0.71875 0.50516,0.31389 0.3795,0.34408 1.93576,-0.46513 z m 25.57717,0.0384 c 1.48191,-0.82104 1.37085,-0.70243 1.23066,-1.3144 -0.064,-0.2794 -0.2696,-1.49403 -0.45689,-2.69918 -0.18728,-1.20514 -0.35494,-2.20561 -0.37259,-2.22325 -0.0176,-0.0176 -0.23811,0.20512 -0.48993,0.49503 -0.44029,0.50689 -0.9366,1.05919 -3.18248,3.54153 -0.56721,0.62693 -1.04346,1.16876 -1.05833,1.20406 -0.0336,0.0798 2.80306,1.66949 2.9812,1.67064 0.0713,4.6e-4 0.67803,-0.30303 1.34836,-0.67443 z m -29.70499,-3.50848 c 0.21924,-1.29365 0.41758,-2.42458 0.44075,-2.51317 0.0656,-0.25067 0.0161,-0.2165 -1.02172,0.70675 -0.53657,0.47731 -1.36086,1.20515 -1.83177,1.61742 -0.47091,0.41227 -0.90722,0.79801 -0.96956,0.85721 -0.093,0.0883 0.0994,0.22292 1.06991,0.74867 0.6508,0.35256 1.31141,0.71914 1.46802,0.81461 0.42799,0.2609 0.41707,0.28976 0.84437,-2.23149 z m 32.39769,2.01222 c 1.43068,-0.76079 2.22973,-1.23331 2.20467,-1.30372 -0.0334,-0.0937 -3.88833,-3.56983 -3.92131,-3.53592 -0.014,0.0144 0.0822,0.65482 0.21366,1.42317 0.13151,0.76835 0.32275,1.91135 0.42496,2.54 0.1798,1.10581 0.21857,1.27 0.29985,1.27 0.021,0 0.37116,-0.17709 0.77817,-0.39353 z m -25.76158,-4.0938 c 0.91598,-8.05362 0.94645,-8.44861 0.62042,-8.04335 -0.20275,0.25204 -3.46702,3.94171 -4.71574,5.3303 -1.43668,1.59761 -1.37382,1.46668 -0.92863,1.93442 0.37668,0.39576 1.93491,2.07524 3.62673,3.90893 0.88783,0.96228 0.88783,0.96228 0.95234,0.58816 0.0355,-0.20577 0.23567,-1.87908 0.44488,-3.71846 z m 17.61827,1.34472 c -0.16417,-1.22855 -0.49015,-3.81487 -0.72438,-5.74739 -0.55961,-4.61707 -0.51811,-4.33329 -0.6273,-4.28924 -0.0519,0.0209 -0.74201,0.32413 -1.53365,0.67381 -0.79163,0.34968 -2.01083,0.87329 -2.70933,1.16358 -1.92586,0.80038 -2.51159,1.05777 -2.52646,1.11021 -0.0174,0.0615 1.39955,1.71892 3.54246,4.14363 0.93133,1.0538 2.39818,2.71457 3.25967,3.6906 1.0308,1.16786 1.57508,1.72569 1.59192,1.63156 0.0141,-0.0787 -0.10875,-1.14822 -0.27293,-2.37676 z m 3.28507,0.005 c 0.64628,-0.71895 1.45715,-1.62008 1.80194,-2.0025 0.62688,-0.69533 0.62688,-0.69533 0.0452,-1.31234 -0.50066,-0.53106 -4.43155,-4.84372 -5.37828,-5.90061 -0.43457,-0.48514 -0.43145,-0.50652 -0.19233,1.31463 0.11543,0.87907 0.28742,2.24601 0.3822,3.03764 0.57796,4.82694 0.86655,7.13232 0.91126,7.27938 0.0578,0.19025 0.33238,-0.0827 2.43001,-2.4162 z m -19.44957,0.92071 c 0.69108,-0.80031 1.64222,-1.90256 2.11364,-2.44944 0.99174,-1.1505 2.15003,-2.46529 3.73603,-4.24085 1.3541,-1.51592 1.36391,-1.29789 -0.0847,-1.88215 -0.66358,-0.26764 -2.20804,-0.90717 -3.43215,-1.42117 -1.2241,-0.51401 -2.24498,-0.91521 -2.26862,-0.89158 -0.0236,0.0236 -0.0991,0.55244 -0.16765,1.17514 -0.45495,4.13122 -1.14598,10.34854 -1.19156,10.72066 -0.0728,0.59473 -0.12932,0.6388 1.29497,-1.01061 z m -10.08476,-1.46589 c 1.06004,-0.93133 2.03671,-1.78858 2.17036,-1.905 0.24301,-0.21167 0.24301,-0.21167 -0.31981,-1.22767 -0.4701,-0.84862 -1.65644,-3.02776 -2.56931,-4.71945 -0.28732,-0.53244 -0.26799,-0.55663 -0.54066,0.67662 -0.48152,2.17783 -0.84398,3.67023 -1.42961,5.88627 -0.32947,1.24673 -0.58404,2.27902 -0.5657,2.29397 1.1269,0.91932 1.03111,0.94889 3.25473,-1.00474 z m 37.87724,1.34581 c 0.30655,-0.16786 0.56453,-0.31155 0.57329,-0.31932 0.009,-0.008 -0.50896,-2.10524 -1.15049,-4.66105 -1.32173,-5.26571 -0.99732,-5.0606 -2.82194,-1.78411 -2.0168,3.6216 -2.17451,2.78325 1.07036,5.6898 1.72963,1.54931 1.58439,1.48228 2.32878,1.07468 z m -41.59853,-0.85898 c 0.0295,-0.12806 0.33498,-1.29963 0.67883,-2.6035 0.65128,-2.46969 1.48186,-5.90276 1.43855,-5.94606 -0.0588,-0.0588 -5.38515,6.85432 -5.38515,6.98947 0,0.31962 3.2014,1.84803 3.26777,1.56009 z m 44.75807,-0.88546 c 0.79055,-0.431 1.22635,-0.71517 1.18975,-0.77576 -0.10959,-0.18137 -0.9122,-1.20017 -1.97629,-2.50861 -0.587,-0.72178 -1.54746,-1.92471 -2.13437,-2.67317 -0.58692,-0.74846 -1.12065,-1.40527 -1.18608,-1.45957 -0.091,-0.0755 1.77237,7.71929 2.01683,8.43676 0.0291,0.0855 0.13658,0.0578 0.44058,-0.11324 0.22114,-0.12444 0.96345,-0.53232 1.64958,-0.90641 z m 1.16003,-2.06569 c -1.63754,-3.63 -3.02828,-7.07509 -3.8415,-9.51602 -0.7326,-2.1989 -0.71306,-2.18386 -0.99002,-0.762 -0.80633,4.13955 -1.25243,2.98576 3.41242,8.82587 0.73434,0.91934 1.39853,1.76826 1.47599,1.88648 0.24287,0.37066 0.21694,0.17268 -0.0569,-0.43433 z m -47.78261,-1.40918 c 1.18573,-1.57028 2.28456,-2.98849 3.85396,-4.97418 0.20587,-0.26048 -0.50896,-5.01662 -0.79733,-5.30499 -0.02,-0.02 -0.12286,0.31766 -0.22849,0.75045 -0.41698,1.70847 -1.34835,4.32689 -2.62897,7.391 -0.42814,1.0244 -0.98123,2.34833 -1.22909,2.94205 -0.24785,0.59373 -0.43758,1.0795 -0.42162,1.0795 0.016,0 0.66916,-0.84772 1.45154,-1.88383 z m -2.96042,0.8255 c 0.66431,-1.46788 1.46646,-3.33081 2.15094,-4.99533 0.36382,-0.88478 0.79721,-1.92376 0.96308,-2.30887 2.47014,-5.73506 4.00212,-12.67082 4.83805,-21.90342 0.27113,-2.99458 0.0848,-5.84909 -0.42198,-6.46391 -1.65829,-2.01186 -2.46191,-4.79654 -1.77023,-6.1341 0.49543,-0.95806 1.06821,-1.23629 4.65414,-2.26079 0.4672,-0.13348 0.93685,-0.3899 2.09929,-1.14617 2.93295,-1.90816 6.4283,-3.79387 7.43729,-4.01237 2.95153,-0.63916 11.04348,-0.53734 13.10382,0.16488 1.805,0.6152 4.80342,2.36455 7.22411,4.21472 0.83298,0.63666 0.83308,0.63671 1.60867,0.75014 5.30864,0.77638 6.45078,4.31588 2.7756,8.60157 -0.33352,0.38892 -0.65867,3.25972 -0.51991,4.59031 0.0486,0.46567 0.16502,1.58962 0.25879,2.49767 1.03508,10.02342 2.60423,16.57726 5.68612,23.749 0.81152,1.88846 2.48505,5.23882 2.67208,5.34941 0.222,0.13129 5.19015,-2.59778 5.75679,-3.16227 0.1905,-0.18977 0.1905,-0.18977 0.1905,-18.38215 0,-18.19236 0,-18.19236 -3.15383,-19.95824 -4.0608,-2.2737 -6.06122,-3.38977 -8.5725,-4.78276 -1.1176,-0.61992 -2.24155,-1.25092 -2.49767,-1.40223 -0.25611,-0.1513 -0.98001,-0.55822 -1.60866,-0.90427 -1.19501,-0.6578 -14.92937,-8.30468 -15.75999,-8.77468 -0.92544,-0.52366 -1.47532,-0.41234 -3.29001,0.66606 -0.25612,0.1522 -1.62772,0.92453 -3.048,1.71628 -1.42028,0.79176 -3.13478,1.75327 -3.81,2.1367 -1.61916,0.91945 -4.12545,2.32367 -7.70467,4.31676 -3.98942,2.22151 -13.18077,7.34463 -14.478,8.06982 -0.62974,0.35204 -1.10068,0.67248 -1.16292,0.79127 -0.082,0.1566 -0.10485,4.09446 -0.10583,18.26791 -10e-4,20.64992 -0.19669,18.20567 1.5312,19.16692 0.48431,0.26943 1.6616,0.92482 2.61622,1.45642 2.05545,1.14464 1.8615,1.13752 2.33751,0.0857 z m 11.41444,-0.65617 c 0.15561,-0.89966 1.13609,-5.80943 1.77957,-8.91117 0.20287,-0.9779 0.35444,-1.79305 0.33683,-1.81145 -0.0176,-0.0184 -0.89534,0.80075 -1.95048,1.82033 -1.05515,1.01958 -2.3228,2.23948 -2.81699,2.71088 -1.04327,0.99515 -1.09042,0.59463 0.39249,3.33391 0.49158,0.90805 1.14509,2.11773 1.45226,2.68817 0.67193,1.24784 0.62161,1.23728 0.80632,0.16933 z m 1.77983,-0.72605 c 0.67025,-0.77648 2.03468,-2.32618 3.03208,-3.44378 1.81346,-2.03201 1.81346,-2.03201 1.5943,-2.3283 -1.09132,-1.47538 -3.4908,-4.46432 -3.59703,-4.48068 -0.0417,-0.006 -0.29952,1.08481 -0.57285,2.42498 -0.49267,2.41556 -0.65694,3.24502 -1.38798,7.00867 -0.20803,1.07103 -0.39838,2.03625 -0.423,2.14492 -0.0689,0.30439 0.036,0.20172 1.35448,-1.32581 z m 27.10754,0.51714 c -1.66068,-8.44237 -2.10699,-10.66339 -2.1628,-10.76313 -0.0484,-0.0865 -0.47795,0.38389 -1.54333,1.69017 -2.72754,3.34427 -2.49001,2.99837 -2.25268,3.28042 0.37526,0.44597 2.29746,2.577 2.94821,3.2685 0.35185,0.37388 1.18837,1.28488 1.85895,2.02444 0.67057,0.73956 1.23318,1.30278 1.25025,1.25159 0.0171,-0.0512 -0.0273,-0.38958 -0.0986,-0.75199 z m 1.46763,-0.34142 c 0.34315,-0.64029 1.05827,-1.93666 1.58917,-2.88082 0.60075,-1.0684 0.94769,-1.77179 0.91873,-1.86267 -0.0848,-0.2661 -5.56514,-5.66912 -5.5155,-5.43768 0.33411,1.55764 1.2576,6.21123 1.7894,9.017 0.42431,2.23861 0.44485,2.32834 0.53314,2.32834 0.0336,0 0.34191,-0.52388 0.68506,-1.16417 z m -15.91295,-9.01277 c 0,-3.47647 -0.032,-6.16229 -0.073,-6.11717 -0.11576,0.12756 -1.07945,1.44387 -3.6541,4.9911 -1.31816,1.8161 -2.56475,3.52193 -2.7702,3.79074 -0.49135,0.64288 -0.6208,0.53345 1.88433,1.59294 1.20998,0.51174 2.71431,1.15415 3.34296,1.4276 0.62865,0.27344 1.17157,0.50059 1.2065,0.50478 0.0349,0.004 0.0635,-2.78132 0.0635,-6.18999 z m 2.42126,5.40693 c 0.74052,-0.30011 2.11573,-0.87364 3.05601,-1.2745 0.94029,-0.40086 1.74766,-0.72884 1.79417,-0.72884 0.24881,0 0.1169,-0.27367 -0.6027,-1.25051 -0.4367,-0.5928 -1.03795,-1.42072 -1.33612,-1.83982 -0.29817,-0.4191 -1.04171,-1.4478 -1.65232,-2.286 -0.61061,-0.8382 -1.55768,-2.16217 -2.1046,-2.94216 -0.54692,-0.77999 -1.00137,-1.41815 -1.00988,-1.41812 -0.0499,1.7e-4 -0.0592,8.45335 -0.0114,10.30536 0.0573,2.21976 0.0573,2.21976 0.28886,2.10001 0.12737,-0.0659 0.83746,-0.3653 1.57798,-0.66542 z m 15.34943,-4.80067 c -0.37357,-1.51158 -0.86869,-3.56707 -1.10027,-4.56774 -0.23158,-1.00068 -0.44899,-1.84736 -0.48314,-1.88151 -0.0567,-0.0567 -0.54805,0.48637 -2.53478,2.80184 -0.38418,0.44774 -0.6985,0.85015 -0.6985,0.89425 0,0.0814 5.43338,5.564 5.47387,5.52351 0.0121,-0.0121 -0.28361,-1.25878 -0.65718,-2.77035 z m -34.18456,1.37917 c 3.76481,-3.62357 4.17796,-4.05614 4.04682,-4.23698 -0.68873,-0.94979 -3.17718,-3.72537 -3.2247,-3.59677 -0.0305,0.0826 -0.53579,2.09335 -1.12279,4.46825 -0.587,2.3749 -1.09036,4.40372 -1.11858,4.5085 -0.0795,0.29528 -0.0524,0.27346 1.41925,-1.143 z m -0.81048,-3.53483 c 1.17497,-4.727 1.12978,-4.49786 0.81674,-4.14163 -0.12616,0.14358 -0.86843,0.97682 -1.64949,1.85166 -1.39023,1.55717 -1.41899,1.59708 -1.36748,1.89796 0.16872,0.98567 0.6504,3.49743 0.79633,4.15257 0.094,0.42202 0.17333,0.79629 0.17628,0.8317 0.017,0.20336 0.28272,-0.79082 1.22762,-4.59226 z m 36.78095,1.778 c 0.23396,-1.30387 0.44133,-2.43968 0.46082,-2.52403 0.0342,-0.14792 -3.06015,-3.49714 -3.14894,-3.40834 -0.0554,0.0554 1.96542,8.45335 2.07845,8.63753 0.0828,0.1349 0.16752,-0.24108 0.60967,-2.70516 z m -26.40546,-0.13966 c 1.96022,-7.45501 2.21549,-8.45916 2.16366,-8.51099 -0.0678,-0.0678 -6.66013,6.20863 -6.66013,6.3409 0,0.1061 3.73689,4.82384 3.78378,4.77695 0.0203,-0.0203 0.34104,-1.19341 0.71269,-2.60686 z m 16.06171,1.21893 c 0.60084,-0.73343 1.47313,-1.78774 1.93843,-2.34291 0.84598,-1.00941 0.84598,-1.00941 -2.50682,-4.33647 -1.84404,-1.82988 -3.3568,-3.32827 -3.36169,-3.32976 -0.0129,-0.004 0.31226,1.31997 1.62657,6.62247 0.64348,2.59609 1.17922,4.72016 1.19052,4.72016 0.0113,0 0.51215,-0.60007 1.11299,-1.33349 z m -15.7713,0.55033 c 0.13057,-0.19791 0.96684,-1.35043 1.85837,-2.56117 1.282,-1.74099 3.03216,-4.1325 4.42493,-6.04648 0.0953,-0.13102 -0.084,-0.24006 -1.80694,-1.09866 -1.05204,-0.52426 -1.92177,-0.94082 -1.93275,-0.92569 -0.011,0.0151 -0.41001,1.57055 -0.88675,3.4565 -0.47674,1.88595 -1.11196,4.32915 -1.4116,5.42933 -0.66082,2.42627 -0.65186,2.36249 -0.24526,1.74617 z m 13.23754,-2.62467 c -0.736,-2.91946 -1.82477,-7.43313 -1.93508,-8.02216 -0.033,-0.17631 -0.0993,-0.28675 -0.16361,-0.27266 -0.147,0.0322 -3.49309,1.95797 -3.63612,2.09271 -0.10966,0.10329 2.16785,3.38662 5.4327,7.83195 0.46171,0.62865 0.85814,1.19062 0.88097,1.24883 0.25651,0.65416 0.0387,-0.42898 -0.57886,-2.87867 z m -18.07304,-4.191 c 0.31755,-1.19909 0.86214,-3.17076 1.21021,-4.3815 0.34807,-1.21073 0.65364,-2.27753 0.67904,-2.37066 0.0411,-0.15061 0.0191,-0.14526 -0.19872,0.0484 -0.1347,0.11973 -0.58781,0.51789 -1.00691,0.88479 -1.08363,0.94866 -4.52967,4.11297 -4.52967,4.15935 0,0.15835 3.07806,3.83982 3.21046,3.83982 0.032,0 0.31804,-0.98107 0.63559,-2.18017 z m 25.82571,0.1905 c 1.48541,-1.69333 1.48541,-1.69333 0.99711,-2.159 -0.69221,-0.66012 -5.27905,-4.59004 -5.31516,-4.55393 -0.0275,0.0275 0.41567,1.57333 1.69409,5.9086 0.26777,0.90805 0.56219,1.91346 0.65427,2.23424 0.16382,0.57068 0.17083,0.57979 0.32585,0.42333 0.0871,-0.088 0.82686,-0.9219 1.64384,-1.85324 z m -22.20203,-1.54303 c 2.48485,-2.33175 3.09964,-2.95015 3.01202,-3.02968 -0.0606,-0.055 -0.62443,-0.41903 -1.25308,-0.80903 -0.62865,-0.39 -1.54144,-0.96587 -2.02841,-1.27971 -0.48698,-0.31384 -0.89579,-0.56024 -0.90847,-0.54756 -0.0127,0.0127 -0.1181,0.3826 -0.23427,0.82204 -0.11616,0.43943 -0.40399,1.48477 -0.63961,2.32297 -0.52926,1.88278 -1.52466,5.7481 -1.51927,5.89961 0.002,0.0615 0.1041,-0.0144 0.22648,-0.16858 0.12238,-0.15417 1.62745,-1.59869 3.34461,-3.21006 z m 19.75197,3.3422 c -0.10577,-0.31403 -2.20794,-7.65803 -2.3513,-8.21433 -0.16952,-0.65783 -0.16952,-0.65783 -0.51846,-0.45651 -0.19192,0.11073 -0.95854,0.53591 -1.70361,0.94484 -1.93072,1.05969 -2.07433,1.14345 -2.07433,1.20983 0,0.0789 6.54315,6.622 6.6221,6.622 0.0337,0 0.0452,-0.0476 0.0256,-0.10583 z m -29.5765,-2.20448 c 1.3967,-1.54831 1.3967,-1.54831 1.21416,-2.2225 -0.1004,-0.3708 -0.3706,-1.46474 -0.60045,-2.43097 -0.50143,-2.10789 -0.44984,-2.08437 -0.743,-0.33872 -0.20287,1.20804 -1.16089,5.94189 -1.29365,6.39234 -0.0743,0.25198 -0.0132,0.1919 1.42294,-1.40015 z m 36.89782,-0.0642 c -0.51839,-2.0619 -0.72811,-3.09567 -0.96965,-4.77978 -0.28245,-1.96934 -0.30391,-2.09802 -0.34337,-2.05856 -0.0864,0.0864 -1.25092,5.28684 -1.21041,5.40531 0.0384,0.11231 2.80259,2.88028 2.83949,2.84338 0.0169,-0.0169 -0.12529,-0.65158 -0.31606,-1.41035 z m -30.30718,-5.95801 c 0.58071,-0.50832 1.14383,-1.00677 1.2514,-1.10766 0.19557,-0.18345 0.19557,-0.18345 -0.79632,-0.92848 -0.54554,-0.40977 -1.40411,-1.1029 -1.90793,-1.54029 -0.84248,-0.73141 -0.91978,-0.7798 -0.96277,-0.60264 -0.0739,0.30453 -0.59311,2.51395 -1.23227,5.24364 -0.32337,1.38106 -0.58795,2.57254 -0.58795,2.64773 0,0.0788 0.67388,-0.48309 1.59001,-1.32569 0.87451,-0.80431 2.06513,-1.87829 2.64583,-2.38661 z m 10.38469,2.65114 c -0.50646,-0.92231 -4.16988,-7.28372 -4.48685,-7.79126 -0.0478,-0.0766 -0.43294,-0.27104 -0.85582,-0.43213 -0.42287,-0.16108 -0.83677,-0.3224 -0.91978,-0.35849 -0.13854,-0.0602 -0.13616,-0.0283 0.029,0.38901 0.099,0.25004 0.57774,1.52142 1.06398,2.82528 1.39613,3.74382 1.47225,3.94321 1.62386,4.25387 0.12258,0.25116 3.98851,2.36085 4.14561,2.26231 0.0126,-0.008 -0.25742,-0.52475 -0.59999,-1.14859 z m 16.45213,1.01838 c 0,-0.0501 -0.14829,-0.6692 -0.32953,-1.37584 -0.18125,-0.70663 -0.62472,-2.52304 -0.98549,-4.03646 -0.36077,-1.51342 -0.66963,-2.76749 -0.68635,-2.78683 -0.0167,-0.0193 -0.38844,0.34436 -0.82603,0.80823 -0.67238,0.71276 -1.61234,1.58173 -2.70418,2.49995 -0.23992,0.20177 -0.23992,0.20177 0.127,0.46745 0.2018,0.14613 1.47182,1.21967 2.82225,2.38564 2.42196,2.09114 2.58233,2.2177 2.58233,2.03786 z m -14.55291,-0.23432 c 0.16995,-0.13131 3.08793,-1.89237 3.27328,-1.97549 0.0337,-0.0151 0.14805,-0.2852 0.25407,-0.60019 0.24261,-0.72078 1.77442,-4.7426 2.22257,-5.83544 0.18498,-0.45108 0.33633,-0.83751 0.33633,-0.85873 0,-0.10001 -1.81951,0.61629 -1.92223,0.75674 -0.0644,0.0881 -0.70179,1.30313 -1.41638,2.70013 -0.7146,1.397 -1.70354,3.30132 -2.19766,4.23182 -0.49412,0.93049 -0.8984,1.70202 -0.8984,1.7145 0,0.0688 0.17202,0.003 0.34842,-0.13334 z m -16.01715,-4.4107 c 0.8382,-3.54936 0.8755,-3.75092 0.66361,-3.58622 -0.55219,0.42921 -2.92713,2.40001 -3.00449,2.49322 -0.10362,0.12485 0.055,0.92727 0.76724,3.88172 0.42667,1.76984 0.46937,1.85843 0.61214,1.27 0.0621,-0.25612 0.49482,-2.08254 0.9615,-4.05872 z m 31.6242,2.53472 c 0.21841,-0.95462 0.48968,-2.10452 0.60282,-2.55534 0.11314,-0.45082 0.20571,-0.85725 0.20571,-0.90317 0,-0.0459 -0.52387,-0.48269 -1.16417,-0.9706 -0.64029,-0.48791 -1.34584,-1.0301 -1.56789,-1.20488 -0.46905,-0.36917 -0.50435,-0.36106 -0.39648,0.091 0.0441,0.18477 0.34279,1.42179 0.6638,2.74894 0.321,1.32715 0.70903,2.93879 0.86227,3.58143 0.15325,0.64264 0.30522,1.11889 0.33773,1.05833 0.0325,-0.0606 0.2378,-0.89115 0.45621,-1.84576 z m -15.42676,-0.16933 c 2.49993,-4.72555 3.30254,-6.35 3.13741,-6.35 -0.0865,0 -0.68963,0.0769 -1.34023,0.17081 -2.43057,0.35097 -4.08258,0.31526 -6.49954,-0.14049 -0.6424,-0.12113 -1.18802,-0.20021 -1.2125,-0.17573 -0.0245,0.0245 0.64883,1.23878 1.49623,2.69846 0.8474,1.45967 1.81666,3.1302 2.15392,3.71228 0.33725,0.58208 0.73497,1.30031 0.88381,1.59607 0.14883,0.29575 0.2836,0.52435 0.29947,0.508 0.0159,-0.0163 0.50252,-0.92509 1.08143,-2.0194 z m -6.46107,-0.61384 c -0.0959,-0.24447 -0.66417,-1.76374 -1.26283,-3.37615 -1.60962,-4.33522 -1.57887,-4.2676 -2.0836,-4.58364 -0.34647,-0.21695 -0.34647,-0.21695 -0.40268,1.91351 -0.0309,1.17175 -0.0789,2.5305 -0.10671,3.01945 -0.0505,0.889 -0.0505,0.889 1.54134,1.905 0.87551,0.5588 1.76524,1.1359 1.97717,1.28245 0.52014,0.35966 0.53803,0.35114 0.33731,-0.16062 z m 11.32498,-0.25814 c 0.50328,-0.29333 1.40671,-0.79735 2.00762,-1.12006 1.09258,-0.58673 1.09258,-0.58673 1.03717,-2.74008 -0.0305,-1.18434 -0.0554,-2.5742 -0.0554,-3.08858 0,-0.93522 0,-0.93522 -0.35983,-0.59284 -0.19791,0.1883 -0.47138,0.42612 -0.60772,0.52848 -0.26048,0.19556 -0.27212,0.22204 -1.40055,3.18606 -0.31912,0.8382 -0.81219,2.12925 -1.09572,2.86901 -0.49671,1.29595 -0.55934,1.49132 -0.47806,1.49132 0.0206,0 0.44922,-0.23999 0.9525,-0.53331 z m 5.455,-3.86638 c 2.36528,-2.35221 4.91429,-7.20352 5.54145,-10.54657 0.0704,-0.37547 0.54175,-0.38532 -4.07007,0.0851 -4.05127,0.41321 -3.706,0.28597 -3.01494,1.11107 0.3158,0.37704 0.62805,0.76098 0.69389,0.85318 0.0659,0.0922 0.40547,0.33221 0.75472,0.53335 1.14642,0.66022 2.54915,1.71537 2.65819,1.9995 0.0231,0.0603 -0.34035,-0.14091 -0.80776,-0.44716 -0.79339,-0.51983 -2.27016,-1.33761 -2.31069,-1.27957 -0.0872,0.12482 -0.19833,1.13678 -0.13214,1.20297 0.1231,0.1231 0.16926,0.0315 0.22611,-0.44846 0.0285,-0.24051 0.0825,-0.45629 0.1201,-0.4795 0.11919,-0.0737 0.18801,0.56408 0.1016,0.94167 -0.0831,0.36326 -0.0831,0.36326 0.58729,1.02554 1.11638,1.10283 1.34994,1.45592 0.48863,0.73871 -0.79276,-0.66013 -1.63073,-1.28676 -1.76932,-1.32307 -0.39779,-0.10423 -0.75511,1.00941 -0.41334,1.28823 0.55008,0.44875 1.65807,1.52527 1.95816,1.90254 0.31845,0.40035 0.18906,0.33514 -0.49517,-0.24957 -0.8592,-0.73423 -1.81764,-1.39823 -2.01827,-1.39823 -0.0707,0 -0.0708,1.13527 -6e-5,3.95433 0.0656,2.61468 -0.1325,2.55885 1.90162,0.53598 z m -21.03916,-1.32157 c 0.11458,-2.87588 0.0981,-3.16874 -0.17789,-3.16874 -0.17112,0 -1.36451,0.91807 -2.18029,1.67729 -0.5353,0.49818 -0.64151,0.57153 -0.45235,0.31238 0.46764,-0.64069 1.34277,-1.57662 1.91221,-2.04508 0.57046,-0.4693 0.57046,-0.4693 0.25019,-1.01736 -0.3883,-0.66447 -0.39019,-0.66648 -0.52478,-0.55669 -0.0954,0.0778 -0.46123,0.28082 -2.35155,1.30493 -0.74199,0.40198 -0.11585,-0.11941 1.2065,-1.00469 0.59373,-0.39748 1.0795,-0.74092 1.0795,-0.7632 0,-0.0643 -0.27199,-0.99481 -0.30007,-1.02656 -0.0139,-0.0158 -0.68325,0.30809 -1.48735,0.71966 -0.80411,0.41158 -1.50241,0.76299 -1.5518,0.78091 -0.21021,0.0763 1.25596,-0.94677 2.11156,-1.4734 0.51223,-0.31529 1.01928,-0.64167 1.12677,-0.72529 0.20601,-0.16026 1.72308,-1.87151 1.68779,-1.90382 -0.0113,-0.0104 -0.83971,-0.0623 -1.8409,-0.11538 -1.00118,-0.0531 -2.76737,-0.1546 -3.92487,-0.22553 -2.45401,-0.15039 -2.19434,-0.22212 -2.03219,0.56131 0.82381,3.98029 3.31723,8.17304 6.53632,10.99099 0.87798,0.76858 0.78017,1.01725 0.9132,-2.32173 z m 26.6267,-1.24794 c -0.29927,-2.66497 -0.37015,-3.12788 -0.46158,-3.01441 -0.0156,0.0194 -0.35883,0.67537 -0.76265,1.4577 -0.40383,0.78233 -0.88678,1.65863 -1.07323,1.94733 -0.339,0.52491 -0.339,0.52491 0.0514,0.86358 0.99853,0.86613 2.53298,1.96586 2.55477,1.831 0.0122,-0.0757 -0.1267,-1.46405 -0.30875,-3.0852 z m -33.02303,1.96598 c 0.71804,-0.56313 1.33895,-1.05565 1.37978,-1.09447 0.0416,-0.0395 -0.0565,-0.23157 -0.22301,-0.43662 -0.511,-0.62923 -1.16371,-1.68754 -1.5695,-2.54481 -0.41488,-0.87648 -0.52183,-0.91962 -0.5241,-0.21142 -10e-4,0.3886 -0.36908,4.21224 -0.47632,4.95137 -0.072,0.49665 -0.0591,0.49054 1.41315,-0.66405 z m 17.43454,-1.73939 c 2.71459,-0.39595 5.38732,-1.30328 4.59316,-1.55927 -0.17462,-0.0563 -0.889,-0.31129 -1.5875,-0.56668 -3.58743,-1.31165 -4.34221,-1.49814 -5.21868,-1.28945 -0.66658,0.15872 -5.35479,1.9519 -5.51967,2.11121 -0.22604,0.2184 3.56798,1.17587 5.82769,1.47068 0.31058,0.0405 0.74768,0.002 1.905,-0.16649 z m -6.26533,-2.72613 c 1.18745,-0.51414 2.67335,-1.16532 3.30199,-1.44707 1.5261,-0.68397 1.32212,-0.70865 4.21506,0.50991 5.03814,2.12216 4.51384,1.98412 5.41932,1.42689 0.95063,-0.58503 0.94919,-0.58625 -2.18371,-1.87257 -0.67522,-0.27724 -1.09432,-0.47764 -0.93133,-0.44535 0.52491,0.10401 2.6583,0.86077 3.42444,1.21473 0.40899,0.18895 0.77909,0.32162 0.82246,0.29482 0.11474,-0.0709 0.74843,-0.88425 0.74843,-0.96061 0,-0.16385 -2.82773,-1.33271 -4.3069,-1.78029 -1.109,-0.33557 -0.80551,-0.31876 0.62835,0.0348 1.33749,0.3298 2.22571,0.61675 3.20039,1.03393 0.36947,0.15814 0.67977,0.2771 0.68956,0.26437 0.11593,-0.15077 0.2084,-1.11632 0.11274,-1.17728 -0.50122,-0.31939 -3.23281,-1.35059 -4.55747,-1.72049 -0.46567,-0.13003 -0.46567,-0.13003 0.0198,-0.0876 0.63619,0.0556 2.55386,0.5511 3.4036,0.87949 0.36943,0.14277 0.68818,0.2431 0.70832,0.22296 0.18738,-0.18738 -2.50209,-2.57612 -3.59466,-3.19273 -0.25175,-0.14207 -0.65654,-0.48827 -0.89954,-0.76932 -1.88359,-2.17852 -1.54354,-2.05215 -5.52183,-2.05215 -3.82126,0 -3.79402,-0.008 -5.07136,1.58797 -0.30717,0.38392 -0.68242,0.78368 -0.8339,0.88835 -1.38846,0.95947 -3.23558,2.58028 -3.7269,3.27029 -0.21039,0.29546 -0.32647,0.31503 1.15923,-0.1955 1.02101,-0.35085 2.45636,-0.68668 2.89823,-0.6781 0.14218,0.003 -0.0885,0.10268 -0.56363,0.24411 -1.06169,0.31604 -1.4501,0.45279 -2.70188,0.95126 -1.55952,0.621 -1.53166,0.60235 -1.5303,1.02463 0.003,0.83308 0.0382,0.8492 0.98816,0.44857 0.94615,-0.39904 1.9018,-0.69214 3.21256,-0.9853 1.51711,-0.33932 1.56015,-0.30612 0.15846,0.12223 -1.15043,0.35158 -2.99436,1.05584 -3.67927,1.40526 -0.32039,0.16345 -0.20591,0.64249 0.30131,1.26087 0.0141,0.0172 0.47514,-0.16897 1.02449,-0.41376 1.10803,-0.49372 2.10722,-0.85036 3.08725,-1.10192 0.96338,-0.2473 0.90675,-0.20361 -0.32204,0.24841 -1.06123,0.39038 -3.02601,1.29737 -3.36599,1.55382 -0.29591,0.22322 1.51807,1.15119 1.93825,0.99154 0.0931,-0.0354 1.14089,-0.48499 2.32834,-0.99913 z m 3.48999,-4.52242 c -2.62142,-1.52027 -3.074,-2.10153 -2.36815,-3.04142 0.85927,-1.14418 5.912,-1.33668 7.09245,-0.2702 1.08836,0.98326 0.48694,1.80597 -2.58339,3.53393 -1.02046,0.57431 -0.71205,0.60634 -2.14091,-0.22231 z m 14.45934,-1.34168 c 4.32783,-0.41988 3.90918,-0.23456 3.44763,-1.52613 -0.20598,-0.57642 -0.53725,-1.51475 -0.73616,-2.08519 -0.40433,-1.15958 -0.38929,-1.14671 -0.87689,-0.75015 -0.1941,0.15786 -1.62927,1.20908 -3.18925,2.33605 -3.41786,2.46914 -3.52035,2.56525 -2.58233,2.42163 0.1397,-0.0214 1.91135,-0.19969 3.937,-0.39621 z m -22.26733,0.27582 c 0,-0.0391 -0.56009,-0.52483 -1.24464,-1.0795 -5.69516,-4.61459 -5.0279,-4.13861 -5.18217,-3.69664 -0.0609,0.17462 -0.38881,0.98425 -0.72857,1.79916 -0.62249,1.49303 -0.95039,2.42112 -0.88019,2.49132 0.0385,0.0385 1.0961,0.10705 5.32623,0.34543 1.28059,0.0722 2.38549,0.14479 2.45534,0.16141 0.225,0.0535 0.254,0.0511 0.254,-0.0212 z m 1.4657,-0.89176 c 0.4846,-0.38983 0.94767,-0.74604 1.02903,-0.79157 0.13563,-0.0759 0.11802,-0.15074 -0.21183,-0.89988 -0.40172,-0.91242 -0.42778,-0.93633 -0.57541,-0.52805 -0.6786,1.87664 -3.74904,0.63765 -4.05398,-1.63586 -0.11962,-0.89183 1.55655,-1.70083 2.80548,-1.35407 0.57545,0.15977 0.70449,0.34786 2.13929,3.11817 0.50035,0.96607 0.49442,0.96359 0.91092,0.38245 0.32988,-0.46029 1.18066,-1.31937 1.54817,-1.56328 0.16941,-0.11243 -2.02632,-2.77051 -3.86767,-4.68208 -0.0526,-0.0546 -6.78237,3.2283 -6.94704,3.38897 -0.0793,0.0774 0.73651,0.76555 5.02311,4.23682 0.70442,0.57044 1.28934,1.03716 1.2998,1.03716 0.0105,0 0.41552,-0.31895 0.90013,-0.70878 z m 17.52529,-0.56499 c 1.23898,-0.88818 3.83691,-2.78819 4.9628,-3.6296 0.19366,-0.14472 -6.59557,-3.73263 -7.06309,-3.73263 -0.64734,0 -4.12593,4.5466 -3.69482,4.82922 0.52168,0.34199 0.76909,0.59169 1.44385,1.45728 0.24503,0.31433 0.46415,0.5715 0.48694,0.5715 0.0228,0 0.40457,-0.75247 0.8484,-1.67216 1.47245,-3.05113 2.25382,-3.32845 4.23409,-1.50275 1.01344,0.93433 1.00803,1.01749 -0.12468,1.91955 -1.68095,1.33864 -3.27013,1.45534 -3.57057,0.26218 -0.1157,-0.45951 -0.13924,-0.44129 -0.58907,0.45612 -0.43616,0.87012 -0.47309,0.74702 0.41133,1.37124 0.41663,0.29406 0.8023,0.58862 0.85704,0.65457 0.15681,0.18895 0.17378,0.17965 1.79778,-0.98452 z m 7.93472,-0.0834 c 2.18076,-3.21132 1.75517,-4.80355 -1.4732,-5.51153 -1.03475,-0.22692 -0.89016,0.8459 0.14975,1.11109 1.79082,0.45668 2.04329,1.4518 0.86485,3.40879 -0.29356,0.4875 -0.29356,0.4875 -0.12223,0.99484 0.20778,0.61528 0.16066,0.61554 0.58083,-0.003 z m -35.31195,-0.32535 c 0.17927,-0.45487 0.17927,-0.45487 -0.19815,-1.22767 -0.93571,-1.91593 -0.57796,-2.55536 1.66518,-2.97617 0.29109,-0.0546 1.02867,-1.04839 0.88485,-1.1922 -0.0527,-0.0527 -2.51603,0.58715 -3.19116,0.82894 -1.1828,0.42362 -1.31576,1.63537 -0.38363,3.49636 0.3567,0.71213 0.94937,1.61999 1.0148,1.55448 0.0159,-0.0159 0.10951,-0.23356 0.20811,-0.48374 z m 17.08762,-2.75746 c 0.0127,-0.0126 -0.78743,-1.2453 -1.778,-2.73937 -0.99058,-1.49407 -2.09621,-3.17829 -2.45697,-3.74271 -0.36075,-0.56442 -0.69125,-1.00438 -0.73445,-0.97769 -0.17137,0.10591 -2.1562,2.72212 -2.16076,2.8481 -0.0634,1.75393 6.03516,5.6984 7.13018,4.61167 z m 5.57003,-2.08547 c 1.11481,-1.21411 2.05921,-2.27619 2.09867,-2.36017 0.16504,-0.35121 -1.97621,-3.28846 -2.15199,-2.952 -0.1595,0.30531 -3.06517,4.79656 -3.9885,6.16497 -0.82837,1.22767 -0.82837,1.22767 0.58818,1.27311 0.77911,0.025 1.41885,0.0536 1.42164,0.0635 0.003,0.01 0.9172,-0.9753 2.032,-2.18941 z m -3.95678,-0.0997 c 1.82066,-2.72539 3.66973,-5.67087 3.59976,-5.73424 -0.14575,-0.13202 -2.22747,-0.34102 -3.39456,-0.34081 -1.2065,2.2e-4 -1.2065,2.2e-4 -1.2065,3.72555 0,2.04893 0.0185,3.72533 0.0411,3.72533 0.0226,0 0.4547,-0.61912 0.96021,-1.37583 z m -1.5093,-2.39183 c 0,-3.683 0,-3.683 -1.08466,-3.683 -0.89714,0 -3.43897,0.26207 -3.54211,0.36521 -0.0828,0.0828 4.45372,7.00079 4.59075,7.00079 0.0198,0 0.036,-1.65735 0.036,-3.683 z m 15.15932,2.7177 c -0.84164,-1.76341 -5.26957,-4.79657 -8.53964,-5.8497 -0.61952,-0.19952 -0.62077,-0.20562 0.21861,1.06727 0.41107,0.62336 0.85466,1.30484 0.98575,1.51439 0.21764,0.3479 0.33434,0.42514 1.34305,0.889 0.60758,0.2794 2.27016,1.10368 3.69463,1.83173 2.99035,1.52837 2.73705,1.46803 2.2976,0.54731 z m -22.31612,-3.73187 c 1.20388,-1.51389 1.68142,-2.1611 1.63145,-2.21107 -0.35481,-0.35481 -7.86017,3.93275 -8.41061,4.8047 -1.24831,1.97746 -1.3274,1.9763 2.54269,0.0372 3.56465,-1.78603 3.56465,-1.78603 4.23647,-2.63086 z"
           id="path19954" /><path
           style="fill:#ffffff;fill-opacity:1;stroke-width:0.5"
           d="m 1804.9082,156.03223 c -4.4585,0.87168 -8.0721,4.19707 -12.1774,6.01448 -35.9324,20.25891 -72.1472,40.02305 -107.9017,60.59391 -2.6828,1.0346 -2.6609,3.85041 -2.398,6.31152 0.2136,42.56894 -0.097,85.14408 0.5132,127.70899 -0.1867,3.34733 0.6117,7.12897 3.984,8.66073 5.9526,3.42816 11.8941,7.14007 18.3041,9.59806 2.3468,-1.33608 2.7649,-4.74412 4.177,-6.93383 8.7076,-19.66512 17.388,-39.57154 21.6506,-60.76263 4.3186,-20.68074 7.8778,-41.7967 7.0044,-62.99495 0.063,-4.98112 -2.8091,-9.1068 -5.3979,-13.08126 -2.649,-5.17891 -5.417,-11.86043 -2.8052,-17.67362 3.2004,-4.89643 9.8379,-5.235 14.8047,-7.32129 9.2854,-3.31332 16.9387,-9.85055 25.7022,-14.18945 6.3356,-3.55304 13.1393,-6.99611 20.6407,-6.89518 12.0123,-0.26272 24.4094,-0.75614 36.2255,0.59635 10.1414,1.86494 18.8768,7.85488 27.3067,13.42835 4.2055,3.06748 8.5274,6.53595 13.9032,6.96228 5.8805,1.19676 12.615,4.05398 14.6143,10.19531 0.3547,4.81663 0.549,10.03688 -2.5049,14.0899 -2.6024,4.29856 -6.402,8.23418 -6.4522,13.59476 -1.492,11.91524 1.2178,23.82669 2.4019,35.65055 3.5801,28.71617 10.9221,57.11967 23.7541,83.14773 2.0622,3.83986 3.5248,8.18211 6.3362,11.5278 3.1885,-0.0143 5.9863,-2.4967 8.8946,-3.65031 4.5379,-2.65684 9.6426,-4.74425 13.5088,-8.33211 0.8282,-17.76647 0.3615,-35.60662 0.486,-53.40136 -0.1983,-25.25332 0.078,-50.53054 -0.8981,-75.76563 -0.6993,-5.81941 -3.1669,-11.98572 -8.7939,-14.6256 -32.4854,-18.74728 -65.4115,-36.72818 -98.1524,-55.02479 -5.3897,-2.5957 -10.4704,-6.44746 -16.4727,-7.42871 l -0.2168,-9.8e-4 z"
           id="path19977"
           transform="scale(0.26458333)" /><path
           style="fill:#ffffff;fill-opacity:1;stroke-width:0.0625"
           d="m 1775.0644,349.34485 c -1.0106,0.97217 -1.8621,2.10369 -2.8132,3.1357 -6.1037,6.94263 -12.2598,13.83907 -18.4139,20.73673 -0.5705,0.72976 -1.3165,1.40723 -1.5521,2.33118 -0.041,0.65929 0.6372,1.03878 0.9845,1.51328 5.2462,5.55648 10.3638,11.23314 15.6159,16.78384 0.4265,0.38137 0.7786,0.92102 1.3289,1.12244 0.3296,-0.15165 0.2632,-0.6507 0.3612,-0.94941 0.8358,-6.27165 1.5005,-12.56496 2.2289,-18.84979 0.7904,-7.14018 1.6565,-14.27331 2.3007,-21.42867 0.093,-1.40154 0.2467,-2.81614 0.1182,-4.2183 -0.017,-0.0781 -0.06,-0.1882 -0.1591,-0.177 z"
           id="path19982"
           transform="scale(0.26458333)" /><path
           style="fill:#ffffff;fill-opacity:1;stroke-width:0.176777"
           d="m 1804.3356,222.4531 c -3.5469,0.12795 -7.1502,-0.21506 -10.6546,0.45178 -2.8808,0.48823 -4.8946,2.78176 -6.586,4.9734 -1.8069,2.35941 -4.0428,4.33558 -6.4783,6.03216 -3.8924,3.11769 -7.8573,6.2481 -11.0707,10.0871 -0.187,0.27023 -1.0462,1.10407 -0.2716,1.0923 4.9773,-1.5631 9.9535,-3.44991 15.1462,-4.04757 0.055,0.1143 -1.1723,0.43726 -1.519,0.57954 -5.115,1.5879 -10.1505,3.46138 -15.0352,5.6553 -0.9784,0.35233 -1.4417,1.36196 -1.2716,2.35264 0.019,0.80371 -0.1064,2.44804 1.1048,2.37924 3.6773,-1.13036 7.1654,-2.80403 10.9241,-3.67303 2.4591,-0.63502 4.9404,-1.20265 7.4282,-1.67136 -5.6876,1.91011 -11.4675,3.70638 -16.869,6.35671 -1.1699,0.76721 -0.5305,2.50039 0.1388,3.40986 0.4498,0.54361 0.8857,1.87054 1.7933,1.22627 5.3807,-2.21666 10.7199,-4.64403 16.4399,-5.85734 -5.1848,2.06298 -10.46,4.06702 -15.3257,6.83871 -1.1412,0.3493 -0.1136,1.03675 0.3787,1.43423 1.8148,1.3132 3.9231,2.482 6.1814,2.70483 6.4173,-2.38805 12.632,-5.29826 18.9206,-8.00496 2.6894,-1.05629 5.266,-2.6176 8.1611,-3.02114 3.1979,0.15837 6.0275,1.8851 8.9793,2.96659 5.7915,2.3366 11.4376,5.06842 17.3721,7.03027 1.4209,0.50428 3.053,0.41046 4.2566,-0.56641 1.0116,-0.68596 2.1999,-1.29973 2.8421,-2.3618 -1.3106,-1.66068 -3.5438,-2.17457 -5.3557,-3.115 -2.7142,-1.19866 -5.5121,-2.25619 -8.1798,-3.52207 5.1177,1.42158 9.9866,3.5672 14.9497,5.42829 0.925,0.21296 1.4339,-0.9858 2.034,-1.48914 0.5491,-0.70999 1.1933,-1.42161 1.5026,-2.2577 -5.6473,-2.99102 -11.7624,-5.08154 -17.7961,-7.16705 6.0585,1.26411 12.0079,3.02881 17.7011,5.48007 0.5033,0.41031 1.0658,0.0812 1.078,-0.5355 0.1807,-1.16623 0.6264,-2.45944 0.2137,-3.60356 -1.1567,-1.06956 -2.8257,-1.41066 -4.2201,-2.09683 -4.5293,-1.77364 -9.0692,-3.57792 -13.7725,-4.83992 5.4464,0.61811 10.6903,2.44568 15.8947,4.12214 0.7,0.16749 0.3611,-0.70045 0.042,-0.92532 -3.4064,-3.83074 -7.409,-7.1079 -11.5494,-10.11335 -3.6738,-2.17671 -6.3206,-5.57892 -9.1963,-8.64744 -1.8724,-2.09041 -4.6787,-3.08707 -7.4479,-2.99053 -3.6268,-0.0952 -7.2555,-0.0983 -10.8833,-0.0944 z m 3.3104,4.31307 c 3.8017,0.099 7.9689,0.21767 11.2115,2.42723 1.4404,1.00573 2.5612,2.87531 1.7405,4.63038 -1.3946,2.71064 -4.2057,4.27235 -6.6314,5.94074 -2.455,1.45215 -4.8295,3.12486 -7.4928,4.17247 -1.5089,0.33343 -2.677,-1.04968 -3.9604,-1.59019 -3.4924,-2.15875 -7.3018,-4.03055 -10.1327,-7.06254 -1.1547,-1.14275 -1.2556,-2.98914 -0.3353,-4.3003 1.1469,-2.12594 3.7471,-2.69126 5.8796,-3.29558 3.172,-0.7268 6.4559,-0.90487 9.721,-0.92221 z"
           id="path19988"
           transform="scale(0.26458333)" /><path
           style="fill:#ffffff;fill-opacity:1;stroke-width:0.0883883"
           d="m 1805.6496,255.83593 c -2.4136,0.0256 -4.6447,1.10064 -6.8954,1.84511 -5.1683,1.91172 -10.3448,3.81729 -15.4057,6.00108 -0.2873,0.1948 -1.0022,0.29783 -0.8647,0.77651 0.6014,0.61725 1.5296,0.77323 2.3044,1.09177 4.8069,1.52208 9.7401,2.62226 14.692,3.55534 1.8848,0.29025 3.7532,0.7645 5.6627,0.85157 2.941,0.0634 5.8356,-0.57155 8.7341,-0.97793 4.5546,-0.80053 9.0994,-1.83027 13.4207,-3.5017 0.863,-0.40378 1.8843,-0.70814 2.4683,-1.50761 0.2843,-0.451 -0.2763,-0.79501 -0.6572,-0.87278 -5.6264,-1.99396 -11.209,-4.11967 -16.8966,-5.93545 -2.1355,-0.63346 -4.3158,-1.30095 -6.5626,-1.32591 z"
           id="path19989"
           transform="scale(0.26458333)" /><path
           style="fill:#ffffff;fill-opacity:1;stroke-width:0.125"
           d="m 1785.9038,192.05273 c -1.0819,0.79243 -1.7941,2.02383 -2.661,3.04131 -1.8568,2.49222 -3.8576,4.8962 -5.5031,7.53487 -0.3293,1.10389 0.3844,2.20894 0.887,3.15551 2.3302,3.56472 5.7505,6.24601 9.1616,8.71818 3.9069,2.67399 8.0748,5.17631 12.708,6.3326 1.3852,0.3258 3.0728,0.55074 4.2393,-0.45776 0.041,-0.69151 -0.752,-1.29347 -1.0371,-1.94686 -5.3322,-8.1632 -10.6865,-16.31157 -16.0668,-24.44275 -0.5399,-0.63942 -0.9065,-1.55638 -1.6783,-1.93729 z"
           id="path19990"
           transform="scale(0.26458333)" /><path
           style="fill:#ffffff;fill-opacity:1;stroke-width:0.125"
           d="m 1776.1667,204.26465 c -3.5967,1.42994 -7.0389,3.23552 -10.5406,4.88463 -5.0449,2.49642 -10.1458,4.89331 -15.0897,7.58558 -0.3838,0.13992 -0.6752,0.60185 -0.283,0.91236 2.5587,2.55545 5.474,4.72623 8.2336,7.05759 5.0131,4.06312 9.9821,8.18407 15.0565,12.16995 0.5333,0.58669 1.0557,-0.31113 1.5175,-0.5542 2.1211,-1.69229 4.2964,-3.32873 6.4009,-5.03443 0.4732,-0.66352 -0.2273,-1.45008 -0.3799,-2.11303 -0.644,-1.40597 -1.1546,-2.9224 -2.0666,-4.1775 -0.519,-0.14286 -0.6387,0.6761 -0.8975,0.97925 -0.7227,1.72238 -2.2881,3.27154 -4.2709,3.23243 -3.2216,0.28862 -6.282,-1.57424 -8.2957,-3.95308 -1.412,-1.70955 -2.4835,-3.90271 -2.4639,-6.1502 0.4044,-2.03439 2.4367,-3.21764 4.2166,-3.87768 2.3302,-0.80789 5.0073,-1.07607 7.2761,0.0256 1.7378,1.17361 2.5531,3.22056 3.602,4.96267 1.6366,2.91337 2.9972,5.9886 4.783,8.81687 0.2757,0.57013 1.0432,0.57537 1.345,0.0294 2.0206,-2.52624 4.1174,-5.06658 6.7519,-6.99646 0.1098,-0.56092 -0.5085,-1.08692 -0.7646,-1.59472 -3.8889,-5.33215 -8.3136,-10.25213 -12.8063,-15.07778 -0.4308,-0.34629 -0.7711,-1.00013 -1.3244,-1.1273 z"
           id="path19991"
           transform="scale(0.26458333)" /><path
           style="fill:#ffffff;fill-opacity:1;stroke-width:0.125"
           d="m 1783.5798,190.64844 c -2.3559,0.5243 -4.461,1.80437 -6.6313,2.81543 -7.3212,3.76858 -14.4904,7.87143 -21.264,12.561 -1.5303,1.08852 -3.1046,2.22453 -4.0291,3.9089 -0.8115,1.37546 -1.8981,2.68145 -2.2482,4.26789 0.1488,0.72088 1.1232,0.3442 1.5954,0.22236 2.9926,-1.05954 5.7481,-2.68202 8.6179,-4.0243 4.6819,-2.38206 9.4527,-4.6042 14.0189,-7.20538 1.5728,-0.88008 2.9818,-2.03133 4.0459,-3.49479 2.2607,-2.82756 4.6083,-5.60704 6.6005,-8.63322 0.4508,-0.62813 -0.3459,-0.48293 -0.706,-0.41789 z"
           id="path19992"
           transform="scale(0.26458333)" /><path
           style="fill:#ffffff;fill-opacity:1;stroke-width:0.0441942"
           d="m 1748.8734,210.10739 c -1.5864,0.24655 -3.1357,0.68844 -4.6932,1.07131 -2.4207,0.64117 -4.8507,1.26293 -7.2254,2.06121 -1.3564,0.47632 -2.6442,1.34666 -3.3009,2.66185 -0.8788,1.68258 -0.7536,3.6842 -0.343,5.47989 0.7221,3.01273 2.1709,5.79176 3.7586,8.43062 0.6023,0.94519 1.1698,1.93342 1.9504,2.74559 0.1538,0.2033 0.4534,0.12361 0.528,-0.1073 0.3987,-0.86845 0.7758,-1.75263 1.0706,-2.66218 0.1591,-0.64481 0.086,-1.3408 -0.2222,-1.93149 -0.9619,-2.19649 -2.2033,-4.30225 -2.6033,-6.69207 -0.1021,-0.91111 -0.1257,-1.90163 0.3479,-2.73308 0.6151,-1.15094 1.8273,-1.78435 2.9903,-2.24387 1.451,-0.58085 3.0034,-0.88853 4.5386,-1.23216 0.6439,-0.14287 1.0587,-0.70949 1.5208,-1.13229 0.8014,-0.84519 1.5045,-1.81083 1.9529,-2.8905 0.1211,-0.28423 0.2142,-0.8586 -0.2701,-0.82553 z"
           id="path19993"
           transform="scale(0.26458333)" /><path
           style="fill:#ffffff;fill-opacity:1;stroke-width:0.125"
           d="m 1747.9968,218.57471 c -0.6493,0.0927 -0.4574,0.96272 -0.7461,1.36515 -1.9104,5.07661 -4.2053,10.01326 -5.8814,15.17559 -0.153,0.35604 -0.1864,0.99964 0.3743,0.949 5.8695,0.58511 11.772,0.77452 17.6569,1.16445 3.9679,0.27039 7.9516,0.37444 11.903,0.81285 0.3369,0.3244 0.8224,-0.20984 0.4502,-0.51123 -2.258,-2.22238 -4.8343,-4.10021 -7.255,-6.14066 -5.101,-4.08205 -10.0873,-8.31423 -15.3178,-12.23068 -0.3676,-0.22241 -0.7351,-0.55772 -1.1841,-0.58447 z"
           id="path19994"
           transform="scale(0.26458333)" /><path
           style="fill:#ffffff;fill-opacity:1;stroke-width:0.125"
           d="m 1742.9902,237.66016 c -0.5747,-0.0139 -1.5813,0.0219 -1.5027,0.83837 0.4201,3.02046 1.3436,5.95433 2.2369,8.86392 4.1297,12.3226 11.3493,23.58725 20.7128,32.58843 1.4294,1.24486 2.7338,2.67296 4.3062,3.73418 0.7398,0.2673 0.9055,-0.77972 0.9668,-1.28125 0.4608,-4.5174 0.4879,-9.06829 0.6618,-13.60344 0,-2.35923 0.2208,-4.74842 -0.1013,-7.0909 -0.097,-0.59829 -0.7526,-0.99602 -1.2856,-0.61865 -3.16,1.90541 -5.8764,4.45232 -8.6426,6.87343 -0.3861,0.34649 -1.0154,0.91834 -0.3926,0.17984 2.33,-3.05277 5.1029,-5.70805 7.9559,-8.26243 0.4703,-0.44361 1.0323,-1.10574 0.4711,-1.72056 -0.6169,-1.20836 -1.2408,-2.46876 -2.1538,-3.47702 -0.7885,-0.0202 -1.438,0.67524 -2.1409,0.97753 -2.7024,1.49371 -5.3989,3.02017 -8.1467,4.42262 3.0045,-2.50674 6.4586,-4.41553 9.4949,-6.8728 0.1955,-0.60649 -0.2959,-1.27276 -0.3735,-1.89101 -0.2369,-0.6631 -0.3353,-1.40208 -0.6331,-2.03063 -0.6856,-0.12871 -1.3219,0.47591 -1.9592,0.67848 -2.9505,1.42408 -5.8593,2.93274 -8.8106,4.35522 3.5406,-2.66107 7.3835,-4.87874 11.0404,-7.36634 2.0428,-1.65169 3.6308,-3.78368 5.4032,-5.7072 0.4509,-0.58028 1.0305,-1.09138 1.3692,-1.74458 -0.2804,-0.49168 -1.102,-0.17744 -1.5969,-0.32601 -8.786,-0.50931 -17.5703,-1.06458 -26.3591,-1.51584 -0.1735,-0.004 -0.3471,-0.005 -0.5206,-0.003 z"
           id="path19995"
           transform="scale(0.26458333)" /><path
           style="fill:#ffffff;fill-opacity:1;stroke-width:0.0883883"
           d="m 1742.678,257.53758 c -0.4991,0.178 -0.3341,0.89599 -0.4296,1.30839 -0.4324,6.68066 -1.1533,13.34651 -1.8818,20.00131 -0.14,0.36341 0.1363,0.86242 0.5603,0.67517 1.3711,-0.66335 2.5,-1.73464 3.727,-2.62316 2.1443,-1.70801 4.3495,-3.34448 6.438,-5.1198 0.4914,-0.39754 -0.078,-0.95422 -0.2933,-1.33247 -1.9008,-2.53566 -3.6711,-5.14955 -5.1536,-7.95383 -0.9086,-1.57752 -1.5688,-3.30723 -2.6327,-4.78954 -0.086,-0.0918 -0.2014,-0.17833 -0.3343,-0.16607 z"
           id="path19996"
           transform="scale(0.26458333)" /><path
           style="fill:#ffffff;fill-opacity:1;stroke-width:0.0883883"
           d="m 1752.1315,273.14658 c -1.4842,0.99586 -2.8179,2.21914 -4.2223,3.32882 -2.4112,2.01322 -4.8598,3.98587 -7.2122,6.0671 -0.5019,0.35704 -0.4279,0.97872 -0.3513,1.5067 0.4744,3.4454 1.3905,6.81203 2.1539,10.20079 0.7343,2.93546 1.3325,5.91242 2.2543,8.79654 0.089,0.28487 0.4225,0.88083 0.7464,0.50737 0.5656,-1.56261 0.835,-3.22444 1.2619,-4.83063 1.8072,-7.71981 3.7104,-15.41838 5.3911,-23.16707 0.09,-0.74889 0.4246,-1.53177 0.2491,-2.28291 -0.052,-0.0934 -0.1646,-0.1506 -0.2709,-0.12671 z"
           id="path19997"
           transform="scale(0.26458333)" /><path
           style="fill:#ffffff;fill-opacity:1;stroke-width:0.0883883"
           d="m 1754.6066,274.37987 c -0.532,0.21938 -0.4025,0.98018 -0.6026,1.43003 -2.1648,9.18493 -4.3894,18.35697 -6.4157,27.57372 0,0.44852 -0.4068,0.99886 -0.098,1.40202 0.4239,0.13989 0.7342,-0.4096 1.0736,-0.58212 4.4321,-3.70752 8.5849,-7.73294 12.9228,-11.54691 2.3446,-2.12047 4.7754,-4.1494 7.0571,-6.33723 0.468,-0.46665 -0.1187,-1.03295 -0.4995,-1.31702 -2.9945,-2.3907 -6.0859,-4.66497 -8.9926,-7.16252 -1.422,-1.14236 -2.7273,-2.45512 -4.2751,-3.42786 -0.054,-0.0223 -0.1117,-0.0374 -0.1702,-0.0321 z"
           id="path19998"
           transform="scale(0.26458333)" /><path
           style="fill:#ffffff;fill-opacity:1;stroke-width:0.0883883"
           d="m 1769.0015,288.26824 c -2.0111,1.58802 -3.8755,3.36683 -5.8069,5.05419 -5.1607,4.65321 -10.3346,9.29555 -15.3534,14.10217 -0.2296,0.23269 -0.6744,0.55671 -0.3404,0.90106 2.3364,3.19726 4.9282,6.19997 7.4636,9.2396 1.4738,1.68506 2.866,3.45843 4.4994,4.99317 0.4709,0.12477 0.4559,-0.58644 0.6154,-0.87192 1.8879,-6.30448 3.4522,-12.70062 5.2731,-19.02457 1.3083,-4.71567 2.7138,-9.40777 3.9841,-14.13182 0,-0.16521 -0.1663,-0.3199 -0.3349,-0.26188 z"
           id="path19999"
           transform="scale(0.26458333)" /><path
           style="fill:#ffffff;fill-opacity:1;stroke-width:0.0883883"
           d="m 1739.1526,289.58232 c -0.4568,0.1927 -0.4011,0.84772 -0.554,1.25004 -0.7196,3.94855 -1.4125,7.90134 -2.2077,11.83688 -1.0784,5.37987 -2.1048,10.79868 -3.3416,16.12595 -0.2015,0.26574 0.1258,0.62876 0.3717,0.35424 2.2868,-2.20743 4.3419,-4.64377 6.4916,-6.98311 1.2428,-1.48764 2.7498,-2.83104 3.5653,-4.622 0.3765,-1.03783 -0.1735,-2.11452 -0.3262,-3.14423 -1.1071,-4.55127 -2.1944,-9.10847 -3.3657,-13.64351 -0.1738,-0.35396 -0.1618,-1.08185 -0.6334,-1.17426 z"
           id="path20000"
           transform="scale(0.26458333)" /><path
           style="fill:#ffffff;fill-opacity:1;stroke-width:0.0883883"
           d="m 1743.6499,310.71404 c -0.8039,0.61875 -1.3741,1.51392 -2.0908,2.2334 -3.0983,3.53375 -6.3158,6.96817 -9.2961,10.60389 -0.4773,0.58208 -0.9652,1.30194 -0.7266,2.09329 0.9769,5.71754 2.0911,11.41274 3.2898,17.08802 0.1434,0.59691 0.2311,1.21687 0.3945,1.80635 0.3893,0.29351 0.4903,-0.37113 0.5833,-0.61786 1.6074,-5.54243 2.8968,-11.17113 4.3271,-16.76081 1.2558,-5.1683 2.6311,-10.31026 3.7399,-15.51267 0.013,-0.27874 0.275,-0.95365 -0.2211,-0.93361 z"
           id="path20001"
           transform="scale(0.26458333)" /><path
           style="fill:#ffffff;fill-opacity:1;stroke-width:0.0883883"
           d="m 1746.1375,310.75323 c -0.3533,0.36225 -0.2877,0.99878 -0.4844,1.46008 -2.7543,10.96568 -5.5059,21.93267 -8.1792,32.91816 -0.057,0.40024 0.4622,0.44119 0.6488,0.15795 3.0943,-2.73113 5.9969,-5.67268 8.9848,-8.51889 3.4927,-3.42451 7.0878,-6.75415 10.3888,-10.36722 0.3875,-0.53137 1.0322,-1.03353 1.0468,-1.73893 -0.6583,-1.22525 -1.6585,-2.23793 -2.5133,-3.32932 -2.975,-3.48852 -5.9682,-6.97626 -9.247,-10.18546 -0.1966,-0.14048 -0.3735,-0.43273 -0.6453,-0.39637 z"
           id="path20002"
           transform="scale(0.26458333)" /><path
           style="fill:#ffffff;fill-opacity:1;stroke-width:0.0883883"
           d="m 1730.0961,329.60412 c -0.411,0.17941 -0.3637,0.78131 -0.5435,1.14111 -1.0631,4.06143 -2.2208,8.09692 -3.6205,12.05871 -3.7094,10.78035 -8.3923,21.18624 -12.6543,31.75258 -0.081,0.26536 -0.425,0.80344 0.04,0.89318 0.5737,-0.46114 0.9401,-1.18125 1.4331,-1.73981 5.9803,-7.85891 11.9692,-15.71175 18.0969,-23.45673 0.4735,-0.43365 0.5826,-1.0661 0.5314,-1.67835 -0.099,-3.84258 -0.7325,-7.64879 -1.3309,-11.43876 -0.4508,-2.40428 -0.7806,-4.85804 -1.5992,-7.17199 -0.073,-0.14882 -0.1477,-0.37455 -0.3532,-0.35994 z"
           id="path20003"
           transform="scale(0.26458333)" /><path
           style="fill:#ffffff;fill-opacity:1;stroke-width:0.0883883"
           d="m 1758.3394,328.59076 c -1.263,0.93818 -2.3512,2.10859 -3.5215,3.16242 -5.4194,5.17564 -10.8126,10.37933 -16.2138,15.57367 -0.6733,0.63746 -1.3972,1.53353 -1.0525,2.5239 0.5612,1.97492 1.7141,3.71329 2.637,5.53006 2.9366,5.34213 5.7653,10.74626 8.7416,16.06759 0.2281,0.2857 0.5016,1.01369 0.9661,0.74336 0.4509,-0.71315 0.4434,-1.62677 0.6511,-2.42935 2.4206,-13.00263 5.1798,-25.94113 7.743,-38.91729 0.08,-0.71718 0.3779,-1.45366 0.2833,-2.17029 -0.08,-0.0583 -0.1239,-0.12091 -0.2343,-0.0841 z"
           id="path20004"
           transform="scale(0.26458333)" /><path
           style="fill:#ffffff;fill-opacity:1;stroke-width:0.0883883"
           d="m 1736.0442,351.99589 c -0.5552,0.23631 -0.5181,1.00401 -0.7134,1.49008 -1.429,6.18338 -2.7833,12.38418 -4.3785,18.5272 -1.2283,4.8856 -2.5795,9.74265 -3.7085,14.65184 -0.01,0.59767 0.7262,0.83217 1.0674,1.21146 0.9444,0.72682 1.9994,1.68349 3.2933,1.41671 1.4787,-0.25757 2.5967,-1.3801 3.7496,-2.25321 4.3317,-3.70503 8.6146,-7.46839 12.87,-11.26054 0.6608,-0.57117 0.2,-1.46792 -0.1218,-2.08866 -3.056,-5.72982 -6.2225,-11.4006 -9.2993,-17.11952 -0.8447,-1.48639 -1.5908,-3.03965 -2.5097,-4.47817 -0.064,-0.0659 -0.1555,-0.11031 -0.2491,-0.0972 z"
           id="path20005"
           transform="scale(0.26458333)" /><path
           style="fill:#ffffff;fill-opacity:1;stroke-width:0.0883883"
           d="m 1733.4581,352.69437 c -0.6826,0.5097 -1.1363,1.29881 -1.7119,1.92844 -5.9376,7.43958 -11.7417,14.9866 -17.4228,22.62373 -0.3935,0.63659 -1.0094,1.20083 -1.1694,1.94914 0.2518,0.63309 0.9805,0.92446 1.4977,1.31615 2.9277,1.75969 6.0134,3.28624 9.2373,4.42305 0.5253,0.1256 1.1139,0.41965 1.6482,0.25929 0.4499,-0.7033 0.5073,-1.60151 0.7771,-2.38494 2.4768,-9.51829 4.987,-19.03123 7.1665,-28.62296 0.056,-0.46109 0.281,-0.93741 0.1902,-1.39955 -0.061,-0.0728 -0.1172,-0.10164 -0.2129,-0.0924 z"
           id="path20006"
           transform="scale(0.26458333)" /><path
           style="fill:#ffffff;fill-opacity:1;stroke-width:0.03125"
           d="m 1748.8375,377.77331 c -0.3873,0.0853 -0.6733,0.39759 -0.9837,0.62528 -1.5545,1.307 -3.0507,2.68145 -4.5793,4.01839 -2.9316,2.6032 -5.8929,5.17312 -8.8142,7.78785 -0.1757,0.13641 -0.3849,0.34992 -0.2671,0.58979 0.2795,0.44953 0.7691,0.71266 1.2016,0.99444 2.1503,1.26847 4.3697,2.41482 6.5465,3.63653 0.8763,0.46963 1.7217,0.99535 2.6003,1.45985 0.3045,0.16819 0.7316,0.14731 0.9436,-0.15723 0.356,-0.50039 0.4629,-1.12576 0.6225,-1.70703 0.4463,-2.02819 0.7575,-4.0831 1.1196,-6.12733 0.5904,-3.41207 1.1471,-6.83013 1.7883,-10.23254 0.021,-0.24733 0.1624,-0.50774 0.073,-0.75213 -0.046,-0.0916 -0.15,-0.14387 -0.2509,-0.13587 z"
           id="path20007"
           transform="scale(0.26458333)" /><path
           style="fill:#ffffff;fill-opacity:1;stroke-width:0.0625"
           d="m 1750.8503,377.52392 c -0.4386,0.0778 -0.2918,0.62952 -0.3652,0.9457 -0.7996,5.75169 -1.7157,11.49146 -2.6643,17.22381 -0.091,0.74661 -0.3341,1.4826 -0.3521,2.23333 0.2966,0.6752 1.0293,1.02147 1.6189,1.40338 2.3304,1.34032 4.6725,2.66041 6.9868,4.0284 0.5124,0.34529 1.1628,0.55593 1.7619,0.30332 1.7904,-0.67445 3.4459,-1.65571 5.1566,-2.50391 2.0488,-1.06043 4.1147,-2.09773 6.1989,-3.07507 0.3651,-0.30434 -0.02,-0.77004 -0.2084,-1.06103 -1.4158,-1.77877 -3.0257,-3.39294 -4.5477,-5.07968 -3.9404,-4.24076 -7.8402,-8.51624 -11.7124,-12.81838 -0.5529,-0.53913 -1.0286,-1.20286 -1.7157,-1.57716 -0.05,-0.0172 -0.1039,-0.0265 -0.1573,-0.0227 z"
           id="path20008"
           transform="scale(0.26458333)" /><path
           style="fill:#ffffff;fill-opacity:1;stroke-width:0.0883883"
           d="m 1770.758,399.61787 c -1.4377,0.16973 -2.6943,0.99515 -3.9972,1.5681 -2.2044,1.13122 -4.4874,2.14143 -6.565,3.49853 -0.32,0.15285 -0.4986,0.61364 -0.091,0.78392 5.1922,3.04772 10.5005,5.89457 15.7654,8.81466 5.9074,3.22707 11.7995,6.48607 17.7524,9.62726 0.3098,0.22217 0.6256,-0.18903 0.341,-0.43676 -1.7213,-2.07894 -3.6598,-3.96934 -5.4855,-5.95604 -5.3165,-5.60179 -10.5963,-11.23942 -15.9553,-16.80051 -0.5139,-0.46598 -0.9846,-1.15029 -1.7653,-1.09916 z"
           id="path20009"
           transform="scale(0.26458333)" /><path
           style="fill:#ffffff;fill-opacity:1;stroke-width:0.0883883"
           d="m 1778.0889,347.43871 c -0.4383,0.1207 -0.2869,0.7539 -0.4114,1.09433 -1.1035,8.88117 -2.0111,17.78579 -3.023,26.67782 -0.6585,6.12554 -1.414,12.24332 -2.0024,18.37468 -0.05,0.33171 0.3535,0.58718 0.5815,0.28985 1.9554,-1.79501 3.563,-3.92811 5.3351,-5.89711 7.2704,-8.45409 14.5752,-16.87789 22.0323,-25.1668 1.0286,-1.24607 2.2866,-2.33677 3.0829,-3.75747 0.3392,-0.58001 -0.037,-1.27637 -0.6333,-1.49103 -2.3388,-1.0917 -4.7839,-1.94259 -7.1534,-2.96654 -5.6661,-2.30659 -11.2693,-4.7726 -16.9895,-6.94349 -0.268,-0.082 -0.5355,-0.20222 -0.8188,-0.21424 z"
           id="path20010"
           transform="scale(0.26458333)" /><path
           style="fill:#ffffff;fill-opacity:1;stroke-width:0.0883883"
           d="m 1761.1147,327.58672 c -0.4302,0.15406 -0.3321,0.79179 -0.5076,1.14459 -1.6553,6.74781 -2.9017,13.58707 -4.2838,20.39404 -1.4874,7.57247 -2.982,15.14757 -4.4443,22.72218 0.1242,0.48917 0.6486,0.0568 0.8221,-0.16797 3.0289,-3.22645 5.8404,-6.64785 8.7884,-9.94733 4.0724,-4.68197 8.2682,-9.25642 12.3021,-13.9716 0.5444,-0.75881 1.3544,-1.48428 1.4376,-2.46482 -0.2057,-0.70851 -0.8099,-1.24183 -1.195,-1.8606 -3.8217,-5.04664 -7.7355,-10.02741 -11.8242,-14.86102 -0.349,-0.31784 -0.6121,-0.8734 -1.0953,-0.98747 z"
           id="path20011"
           transform="scale(0.26458333)" /><path
           style="fill:#ffffff;fill-opacity:1;stroke-width:0.0883883"
           d="m 1787.2745,301.15567 c -0.8273,0.39636 -1.4385,1.15377 -2.149,1.72501 -7.1999,6.62655 -14.272,13.39253 -21.2545,20.24751 -0.6138,0.65855 -1.3445,1.25982 -1.8253,2.01111 1.6477,2.42621 3.5436,4.69063 5.3316,7.01994 2.926,3.69669 5.8324,7.4233 8.8846,11.00955 0.4305,0.2581 0.5247,-0.41127 0.6123,-0.6857 2.4111,-8.67189 4.6237,-17.39787 6.9217,-26.10035 1.2376,-4.84822 2.581,-9.67206 3.6785,-14.55437 0.031,-0.21799 0.1799,-0.67758 -0.1999,-0.6727 z"
           id="path20012"
           transform="scale(0.26458333)" /><path
           style="fill:#ffffff;fill-opacity:1;stroke-width:0.0883883"
           d="m 1771.3192,287.64831 c -0.4616,0.11181 -0.3282,0.79265 -0.5282,1.12195 -2.9939,10.95648 -6.1184,21.88305 -8.7039,32.94554 -0.1565,0.30627 0.227,0.60648 0.4359,0.28345 7.2562,-7.24115 14.8769,-14.10632 22.2107,-21.27033 0.8431,-0.90463 1.8447,-1.70844 2.4775,-2.78268 0.1563,-0.50631 -0.5552,-0.66322 -0.8338,-0.93861 -4.5727,-2.93718 -9.1837,-5.81169 -13.7835,-8.70595 -0.4177,-0.21081 -0.8038,-0.57645 -1.2747,-0.65337 z"
           id="path20013"
           transform="scale(0.26458333)" /><path
           style="fill:#ffffff;fill-opacity:1;stroke-width:0.0883883"
           d="m 1772.7502,263.02801 c -0.5466,0.11641 -0.4876,0.8662 -0.5909,1.29475 -0.3371,3.67756 -0.2776,7.37828 -0.4475,11.06541 -0.056,2.81597 -0.2712,5.62492 -0.27,8.44045 -0.041,1.12661 0.6768,2.09607 1.5679,2.71173 3.1832,2.32378 6.5854,4.32835 9.8637,6.51288 1.18,0.73265 2.2977,1.58166 3.5262,2.22773 0.4708,0.007 0.3583,-0.61065 0.1936,-0.87842 -2.8451,-7.83098 -5.7936,-15.62433 -8.7198,-23.42528 -0.8582,-2.10473 -1.5467,-4.31119 -2.758,-6.24881 -0.5565,-0.78068 -1.392,-1.37882 -2.2898,-1.69612 -0.025,-0.003 -0.05,-0.005 -0.075,-0.004 z"
           id="path20014"
           transform="scale(0.26458333)" /><path
           style="fill:#ffffff;fill-opacity:1;stroke-width:0.0883883"
           d="m 1778.825,268.03438 c -0.4877,0.12403 -0.1062,0.72816 -0.029,1.01768 3.0322,8.11451 6.0614,16.23069 9.1214,24.33487 0.4963,1.13913 0.8026,2.39689 1.5344,3.41389 1.667,1.30378 3.5734,2.26711 5.3913,3.34111 3.1763,1.74536 6.3312,3.56347 9.6825,4.95704 0.256,0.18979 0.7131,-0.0117 0.5214,-0.34924 -1.8536,-3.70254 -3.9818,-7.26132 -6.0044,-10.87304 -4.202,-7.3313 -8.3975,-14.66732 -12.6906,-21.94562 -0.3459,-0.65866 -0.849,-1.2328 -1.5639,-1.49587 -1.9368,-0.90862 -3.9511,-1.66773 -5.9529,-2.40151 z"
           id="path20015"
           transform="scale(0.26458333)" /><path
           style="fill:#ffffff;fill-opacity:1;stroke-width:0.0883883"
           d="m 1788.473,271.20117 c -0.5083,0.0342 -0.2421,0.64938 -0.071,0.89908 3.6926,6.82406 7.6973,13.47339 11.554,20.2051 2.0838,3.57258 4.1214,7.16894 6.0721,10.8161 0.1189,0.24032 0.463,0.73154 0.7093,0.34682 3.9155,-7.27503 7.7737,-14.5819 11.5471,-21.93175 1.3617,-2.76741 2.8625,-5.47416 4.0423,-8.32647 0.096,-0.43 0.485,-0.8852 0.3378,-1.32387 -0.5226,-0.20261 -1.1322,0.0497 -1.6815,0.0521 -4.7449,0.60147 -9.4908,1.41131 -14.2838,1.31936 -4.053,0.07 -8.088,-0.34439 -12.0723,-1.06902 -2.0511,-0.3238 -4.0906,-0.75381 -6.154,-0.98748 z"
           id="path20016"
           transform="scale(0.26458333)" /><path
           style="fill:#ffffff;fill-opacity:1;stroke-width:0.0883883"
           d="m 1832.6897,268.47235 c -1.7888,0.4179 -3.4796,1.19036 -5.1749,1.88685 -0.8271,0.43242 -1.9303,0.67932 -2.316,1.63439 -4.5341,8.52486 -8.8432,17.16674 -13.3721,25.694 -1.0833,2.10866 -2.2569,4.17637 -3.2816,6.31205 -0.1444,0.41088 0.4,0.50159 0.6392,0.27345 3.0657,-1.89279 6.1289,-3.79462 9.2277,-5.63517 1.3098,-0.81971 2.6848,-1.53589 3.9722,-2.37969 0.5747,-0.74349 0.7454,-1.72308 1.1139,-2.5759 2.9389,-8.10327 6.0925,-16.12477 9.2186,-24.15639 0.055,-0.31477 0.4894,-0.90602 0.012,-1.05359 l -0.022,-3.4e-4 z"
           id="path20017"
           transform="scale(0.26458333)" /><path
           style="fill:#ffffff;fill-opacity:1;stroke-width:0.0883883"
           d="m 1839.9498,263.19616 c -0.7207,0.29005 -1.2095,0.98393 -1.8145,1.44886 -0.9925,0.97737 -2.3476,1.70003 -2.851,3.07448 -1.9708,4.64013 -3.6715,9.39002 -5.4994,14.08743 -1.5192,4.06041 -3.1512,8.08107 -4.5719,12.17703 -0.1227,0.26843 -0.1076,0.91112 0.338,0.73266 2.9651,-1.58268 5.8417,-3.33033 8.7989,-4.93 1.6834,-0.99951 3.5217,-1.77196 5.061,-2.99595 1.2832,-1.14259 1.221,-3.01594 1.2901,-4.58633 -0.01,-4.63636 -0.186,-9.2714 -0.2373,-13.90771 -0.053,-1.6023 -0.028,-3.21403 -0.1701,-4.80976 -0.047,-0.15256 -0.1629,-0.31321 -0.3438,-0.29071 z"
           id="path20018"
           transform="scale(0.26458333)" /><path
           style="fill:#ffffff;fill-opacity:1;stroke-width:0.0883883"
           d="m 1869.4602,236.99091 c -4.447,0.25684 -8.8733,0.79717 -13.3069,1.21902 -4.1265,0.46121 -8.2741,0.76286 -12.3815,1.37842 -0.6052,0.15012 -1.5409,0.1886 -1.7296,0.91721 0.089,0.7687 0.8269,1.25955 1.2535,1.8525 1.1555,1.29742 2.1548,2.73682 3.373,3.97509 1.9366,1.53815 4.1906,2.61017 6.2011,4.04545 2.0833,1.45423 4.2523,2.89821 5.9808,4.76559 0,0.0785 -0.5134,-0.27835 -0.6846,-0.35494 -3.2962,-1.99995 -6.5337,-4.12574 -10.0256,-5.77683 -0.2898,-0.1856 -0.7821,-0.25273 -0.8738,0.18023 -0.3246,1.27089 -0.491,2.60194 -0.4421,3.91498 -0.054,0.37363 0.3112,0.93869 0.6996,0.59524 0.4306,-0.59644 0.3655,-1.41578 0.5427,-2.10841 0.096,-0.44152 0.13,-1.10107 0.3443,-1.41314 0.466,1.40167 0.1699,2.87873 0,4.30738 0.078,0.82744 0.8889,1.31431 1.3565,1.92717 1.4954,1.60154 3.1669,3.16198 4.5365,4.81002 -2.6192,-1.98117 -5.0657,-4.2073 -7.8426,-5.97192 -0.6063,-0.48044 -1.3637,0.004 -1.7153,0.55485 -0.769,1.01258 -0.9776,2.36741 -0.7849,3.5989 0.3971,0.99448 1.4381,1.50641 2.1402,2.26287 2.0029,1.91522 4.0178,3.82949 5.8572,5.9039 0.3842,0.45475 -4e-4,0.13684 -0.2293,-0.0478 -2.7554,-2.20328 -5.4103,-4.61627 -8.5201,-6.33095 -0.2932,-0.16477 -0.9247,-0.51737 -1.0275,0.0367 -0.2356,2.09895 -0.08,4.22352 -0.093,6.33217 0.1009,4.70125 0.128,9.40631 0.3518,14.10359 0.1053,0.68611 0,1.66509 0.7229,2.03594 0.7167,0.0777 1.3002,-0.5353 1.8138,-0.95259 3.241,-3.10557 6.5133,-6.21868 9.2171,-9.81852 5.1537,-6.78877 9.3085,-14.31242 12.5903,-22.16977 1.6805,-4.05108 3.0402,-8.24035 3.9138,-12.54131 0.1331,-0.3857 0.3259,-1.07847 -0.2636,-1.17632 -0.3213,-0.0663 -0.6533,-0.0492 -0.9793,-0.0547 z"
           id="path20020"
           transform="scale(0.26458333)" /><path
           style="fill:#ffffff;fill-opacity:1;stroke-width:0.0883883"
           d="m 1864.3739,219.13422 c -0.8851,0.27101 -1.5472,1.00801 -2.3123,1.5049 -6.8454,5.15548 -13.8989,10.03705 -20.7255,15.22121 -0.7762,0.67872 -1.7452,1.22953 -2.275,2.13686 -0.1441,0.5405 0.6173,0.59245 0.971,0.48755 8.5793,-0.9781 17.1872,-1.69717 25.7751,-2.60214 1.293,-0.19964 2.6944,-0.234 3.8477,-0.91444 0.4613,-0.27137 0.6519,-0.8126 0.4658,-1.31443 -0.64,-2.09336 -1.496,-4.11603 -2.1893,-6.19221 -0.933,-2.53211 -1.7243,-5.124 -2.7821,-7.6088 -0.1731,-0.27865 -0.3972,-0.71941 -0.7754,-0.7185 z"
           id="path20021"
           transform="scale(0.26458333)" /><path
           style="fill:#ffffff;fill-opacity:1;stroke-width:0.0883883"
           d="m 1835.61,204.28722 c -1.0541,0.22639 -1.8043,1.11348 -2.5868,1.79391 -3.1999,3.19655 -5.9682,6.80014 -8.5632,10.49622 -1.115,1.71111 -2.3495,3.4013 -3.0251,5.34577 -0.1837,0.41766 0.048,0.82755 0.4276,1.02682 1.6629,1.09572 2.9969,2.57052 4.2118,4.12783 0.931,1.09634 1.7404,2.31796 2.7925,3.30059 0.466,0.0656 0.4986,-0.62516 0.7421,-0.9008 2.0253,-3.82671 3.7475,-7.84152 6.0674,-11.49132 1.042,-1.47575 2.2624,-3.05268 4.0472,-3.63638 1.9981,-0.56696 3.9705,0.57878 5.5353,1.72978 1.8628,1.40943 3.6309,2.967 5.138,4.7583 0.5374,0.58949 0.5455,1.51748 0,2.10596 -1.2643,1.4674 -2.8738,2.60491 -4.4366,3.72383 -2.487,1.67788 -5.4441,3.16372 -8.5116,2.75749 -1.383,-0.20169 -2.6413,-1.26739 -3.0004,-2.65421 -0.194,-0.4731 -0.2052,-1.14375 -0.6715,-1.43873 -0.5117,0.0305 -0.6941,0.68265 -0.9469,1.04669 -0.7255,1.42485 -1.5325,2.8299 -2.0744,4.33482 -0.1981,0.93739 0.8107,1.46004 1.4134,1.95887 1.6556,1.21196 3.3787,2.36783 4.9176,3.71749 0.7248,0.11346 1.342,-0.47468 1.9451,-0.79007 4.2376,-2.87521 8.3338,-5.9539 12.4879,-8.94736 3.5257,-2.59578 7.0949,-5.1359 10.5679,-7.80145 0.3309,-0.18179 0.3997,-0.64708 0.019,-0.8257 -2.4363,-1.70937 -5.0985,-3.06798 -7.6892,-4.52459 -5.5158,-2.97701 -11.0654,-5.9046 -16.7586,-8.53007 -0.662,-0.26066 -1.3257,-0.62879 -2.0452,-0.68369 z"
           id="path20022"
           transform="scale(0.26458333)" /><path
           style="fill:#ffffff;fill-opacity:1;stroke-width:0.0625"
           d="m 1866.8635,210.81494 c -0.8687,-0.0515 -1.8431,0.69244 -1.6805,1.625 0.2215,1.41693 1.5152,2.38041 2.7949,2.82031 1.8291,0.56886 3.8085,1.07504 5.1999,2.48057 1.1104,1.1054 1.4086,2.78367 1.1037,4.27518 -0.4682,2.54523 -1.8574,4.79287 -3.1295,7.01189 -0.4712,0.70446 -0.415,1.60722 -0.12,2.36784 0.279,0.73965 0.4294,1.54419 0.8263,2.23122 0.1773,0.30041 0.5914,0.20867 0.7409,-0.0675 1.428,-1.91253 2.6963,-3.94612 3.842,-6.03947 1.0998,-2.08793 2.0778,-4.30736 2.3554,-6.67135 0.032,-1.15737 0.114,-2.36144 -0.3544,-3.45252 -0.8366,-2.28655 -2.9171,-3.83653 -5.0712,-4.79449 -1.8708,-0.82303 -3.8519,-1.40678 -5.8665,-1.74606 -0.2125,-0.0273 -0.4267,-0.0439 -0.641,-0.0406 z"
           id="path20023"
           transform="scale(0.26458333)" /><path
           style="fill:#ffffff;fill-opacity:1;stroke-width:0.0883883"
           d="m 1825.7262,192.1043 c -0.5619,0.12758 -0.6516,0.87706 -1.0062,1.25286 -5.0085,7.98164 -10.2207,15.83095 -15.365,23.72408 -0.4101,0.76768 -1.0716,1.48336 -1.1692,2.37287 0.1444,0.8783 1.2083,0.88471 1.8983,0.96081 2.6622,0.19315 5.3314,0.28801 7.9995,0.35811 0.8637,-0.70253 1.5641,-1.63917 2.3617,-2.43586 4.3657,-4.72863 8.7606,-9.43485 12.9661,-14.3074 0.2971,-0.34223 0.6095,-0.78921 0.3411,-1.24705 -0.722,-1.98886 -2.0165,-3.70521 -3.1924,-5.44347 -1.2824,-1.72262 -2.5144,-3.53743 -4.1682,-4.93007 -0.1978,-0.13822 -0.4109,-0.3123 -0.6657,-0.30488 z"
           id="path20024"
           transform="scale(0.26458333)" /><path
           style="fill:#ffffff;fill-opacity:1;stroke-width:0.0883883"
           d="m 1809.22,188.97222 c -0.8472,0.30329 -1.5684,0.95817 -1.7902,1.85097 -0.6784,2.33568 -0.4153,4.79922 -0.5182,7.19756 -0.033,6.26374 -0.1381,12.53159 0.089,18.79276 -0.077,0.25793 0.2002,0.64276 0.4214,0.33249 4.5184,-6.4031 8.7378,-13.01158 12.9355,-19.62752 1.4332,-2.33884 2.9651,-4.62678 4.201,-7.0794 0,-0.45858 -0.6682,-0.36925 -0.9987,-0.51721 -3.628,-0.69164 -7.3351,-0.87721 -11.0211,-0.96036 -1.1051,0.007 -2.2175,-0.0357 -3.3184,0.0107 z"
           id="path20025"
           transform="scale(0.26458333)" /><path
           style="fill:#ffffff;fill-opacity:1;stroke-width:0.0883883"
           d="m 1800.6471,188.9572 c -3.9228,0.0201 -7.8295,0.48181 -11.7117,1.00921 -0.5044,0.10621 -1.0687,0.11106 -1.5107,0.3829 0.1142,0.61398 0.6003,1.13992 0.8843,1.70666 4.3892,7.10093 8.9912,14.06908 13.6648,20.98547 0.9269,1.31899 1.8035,2.70062 2.8324,3.93035 0.5452,-0.0368 0.2052,-0.97368 0.3351,-1.39068 0.1094,-6.96596 0.082,-13.93454 0.011,-20.9009 -0.089,-1.53793 -0.064,-3.15904 -0.7137,-4.58743 -0.4271,-0.87026 -1.4493,-1.2202 -2.3677,-1.13258 -0.4745,-0.006 -0.949,-0.004 -1.4235,-0.003 z"
           id="path20026"
           transform="scale(0.26458333)" /><path
           style="fill:#ffffff;fill-opacity:1;stroke-width:0.0883883"
           d="m 1828.6657,190.60636 c -0.5328,0.0152 -0.3528,0.68186 -0.149,0.96071 1.7255,2.97322 3.723,5.77984 5.5553,8.68768 0.6566,1.14185 1.5505,2.17146 2.7615,2.74139 3.1588,1.57578 6.3562,3.07594 9.5061,4.67115 5.212,2.56287 10.3644,5.24581 15.5792,7.80243 0.4654,0.15092 1.1041,0.57759 1.5503,0.19301 0.1361,-0.48618 -0.3025,-0.96014 -0.4377,-1.41798 -1.3369,-3.11523 -3.7876,-5.56738 -6.2768,-7.79151 -5.6432,-4.89116 -12.008,-8.91789 -18.6972,-12.21812 -2.9787,-1.42593 -6.0307,-2.75265 -9.2236,-3.61702 -0.056,-0.008 -0.1119,-0.0131 -0.1681,-0.0117 z"
           id="path20027"
           transform="scale(0.26458333)" /><path
           style="fill:#ffffff;fill-opacity:1;stroke-width:0.0883883"
           d="m 1789.854,299.69847 c -0.3704,0.75225 -0.459,1.65333 -0.7156,2.46477 -3.1148,12.19338 -6.1935,24.39453 -9.4926,36.53899 -0.1569,0.82821 -0.5388,1.64838 -0.522,2.49526 0.1423,0.38954 0.5549,0.071 0.6498,-0.18386 5.5633,-7.85307 11.3396,-15.55187 17.0014,-23.33399 2.4866,-3.43683 5.0424,-6.82645 7.4494,-10.31917 0.095,-0.56193 -0.6411,-0.80335 -1.0022,-1.08104 -3.8627,-2.13338 -7.852,-4.03011 -11.819,-5.96027 -0.511,-0.20304 -1.005,-0.5546 -1.5492,-0.62069 z"
           id="path20028"
           transform="scale(0.26458333)" /><path
           style="fill:#ffffff;fill-opacity:1;stroke-width:0.0883883"
           d="m 1804.6998,309.8823 c -0.6394,0.53367 -1.0412,1.33023 -1.5788,1.96952 -7.9051,10.77272 -15.7196,21.62135 -23.6325,32.38061 -0.4618,0.60807 0.073,1.35104 0.6521,1.63152 2.4384,1.34539 5.0751,2.28636 7.6141,3.42044 5.6343,2.38856 11.2515,4.82268 16.8966,7.18288 0.483,-0.0245 0.3318,-0.7095 0.4109,-1.03108 0.1238,-5.26191 0.068,-10.5282 0.098,-15.79188 -0.01,-9.1763 0.046,-18.35363 -0.065,-27.52923 -0.059,-0.70934 0.01,-1.44972 -0.1772,-2.13887 -0.038,-0.0902 -0.1445,-0.0692 -0.2187,-0.0939 z"
           id="path20029"
           transform="scale(0.26458333)" /><path
           style="fill:#ffffff;fill-opacity:1;stroke-width:0.0883883"
           d="m 1807.2809,309.13566 c -0.3614,0.31213 -0.1652,0.91293 -0.2512,1.33924 -0.14,8.17823 -0.068,16.35878 -0.08,24.53799 0.044,6.34513 -0.03,12.69593 0.2806,19.03542 0.096,0.68634 0.01,1.46865 0.3836,2.07369 0.4534,0.16112 0.9255,-0.25704 1.3695,-0.35505 7.0085,-2.90981 14.0138,-5.82765 21.0156,-8.75385 0.9644,-0.40438 1.9428,-0.78394 2.9264,-1.12136 0.4737,-0.45895 -0.069,-1.1421 -0.2866,-1.59243 -1.9223,-3.03153 -4.1735,-5.84083 -6.2351,-8.7755 -6.1834,-8.5598 -12.3829,-17.10848 -18.4606,-25.74406 -0.2178,-0.18994 -0.3128,-0.6836 -0.6625,-0.64409 z"
           id="path20030"
           transform="scale(0.26458333)" /><path
           style="fill:#ffffff;fill-opacity:1;stroke-width:0.0883883"
           d="m 1822.4536,298.62625 c -1.371,0.47612 -2.5807,1.33806 -3.8645,2.00639 -3.3191,1.91422 -6.676,3.77272 -9.9153,5.81906 -0.4667,0.31805 0.1316,0.82022 0.2559,1.20379 2.3389,3.92009 5.04,7.60951 7.6444,11.35461 4.9649,7.05547 10.105,13.98494 15.1278,20.99867 0.4034,0.47556 0.6152,1.0956 1.0187,1.55695 0.4886,0.11497 0.3056,-0.55134 0.2593,-0.82018 -1.2067,-5.85146 -2.7779,-11.62034 -4.1767,-17.42698 -1.9506,-7.91728 -3.8726,-15.84359 -5.7122,-23.78616 -0.1139,-0.32846 -0.2152,-0.85371 -0.6374,-0.90615 z"
           id="path20031"
           transform="scale(0.26458333)" /><path
           style="fill:#ffffff;fill-opacity:1;stroke-width:0.0883883"
           d="m 1825.0022,300.27507 c 0.1021,1.1911 0.536,2.34882 0.772,3.52362 3.2097,12.98219 6.4046,25.96853 9.6952,38.93047 0.1376,0.67742 0.6638,0.006 0.8698,-0.2799 4.0102,-4.84293 8.044,-9.66746 12.0055,-14.55007 0.7139,-0.85612 1.0634,-2.08921 0.5453,-3.13135 -0.967,-2.04155 -2.6233,-3.64706 -4.1684,-5.25533 -6.4353,-6.46585 -12.8692,-12.93441 -19.3902,-19.31374 -0.1075,-0.0921 -0.2642,-0.0411 -0.3292,0.0763 z"
           id="path20032"
           transform="scale(0.26458333)" /><path
           style="fill:#ffffff;fill-opacity:1;stroke-width:0.0883883"
           d="m 1840.4845,288.4331 c -1.5277,0.58164 -2.895,1.53045 -4.3469,2.27735 -3.5393,1.98946 -7.1498,3.85805 -10.6242,5.95969 -0.357,0.16264 -0.4589,0.61983 -0.1224,0.86817 5.2946,5.51123 10.7403,10.87588 16.1436,16.28039 2.7823,2.7351 5.5102,5.52924 8.3576,8.1961 0.1612,0.24412 0.7116,0.36743 0.6674,-0.064 -3.1294,-10.84007 -6.2207,-21.69305 -9.2969,-32.54798 -0.1453,-0.36895 -0.274,-0.9811 -0.7782,-0.96968 z"
           id="path20033"
           transform="scale(0.26458333)" /><path
           style="fill:#ffffff;fill-opacity:1;stroke-width:0.0883883"
           d="m 1843.2784,289.58474 c -0.2387,0.38316 0.1396,0.87022 0.171,1.28563 2.7637,9.86322 5.7117,19.6739 8.5906,29.50393 0.2796,0.65629 0.282,1.50967 0.8218,2.02099 0.4753,0.0566 0.7303,-0.53252 1.0628,-0.78582 3.1565,-3.51047 6.3018,-7.03479 9.3285,-10.65822 0.5665,-0.78505 1.3742,-1.58498 1.3609,-2.61696 -0.2369,-1.06091 -1.2559,-1.68825 -1.9747,-2.41735 -5.9712,-5.298 -12.0225,-10.50784 -18.1718,-15.59816 -0.3801,-0.19764 -0.7291,-0.79788 -1.1891,-0.73404 z"
           id="path20034"
           transform="scale(0.26458333)" /><path
           style="fill:#ffffff;fill-opacity:1;stroke-width:0.0883883"
           d="m 1857.2912,273.52983 c -0.7316,0.37835 -1.225,1.11544 -1.8385,1.65503 -3.5492,3.68084 -7.2907,7.17117 -11.1862,10.48662 -0.3154,0.37172 -0.8863,0.63619 -0.9924,1.13628 0.2657,0.69495 1.0648,0.99758 1.5768,1.48971 6.2079,5.09212 12.1903,10.45252 18.3667,15.58201 0.5185,0.34238 0.9786,0.90574 1.6065,1.01889 0.4767,-0.19229 0.097,-0.82299 0.072,-1.17521 -2.1953,-8.99656 -4.3932,-17.99178 -6.565,-26.99443 -0.2962,-1.03887 -0.4445,-2.1444 -0.8436,-3.14211 -0.053,-0.0479 -0.127,-0.0672 -0.1965,-0.0568 z"
           id="path20035"
           transform="scale(0.26458333)" /><path
           style="fill:#ffffff;fill-opacity:1;stroke-width:0.0883883"
           d="m 1860.0884,274.11402 c -0.5018,0.15125 -0.1801,0.81871 -0.1559,1.17917 1.7469,7.46309 3.5742,14.90802 5.3696,22.35983 0.4911,1.85218 0.8428,3.75202 1.5076,5.55233 0.048,0.31411 0.5276,0.47671 0.5908,0.0875 1.3173,-4.86467 2.337,-9.80506 3.5369,-14.69961 0.3721,-1.68122 0.8505,-3.35029 1.1609,-5.03862 -0.2527,-0.66073 -0.9835,-0.99529 -1.4632,-1.47866 -3.2132,-2.58295 -6.5004,-5.07372 -9.7816,-7.56871 -0.2395,-0.14301 -0.4734,-0.37663 -0.7651,-0.39326 z"
           id="path20036"
           transform="scale(0.26458333)" /><path
           style="fill:#ffffff;fill-opacity:1;stroke-width:0.0883883"
           d="m 1869.006,256.73863 c -0.4316,0.34964 -0.5608,0.99223 -0.8738,1.45131 -2.2386,4.25506 -4.3816,8.56306 -6.9008,12.65264 -0.3546,0.51329 -0.3452,1.25478 0.1899,1.64696 2.4652,2.28814 5.1894,4.28231 7.9248,6.23276 0.805,0.49834 1.5629,1.16979 2.476,1.44356 0.4192,-0.22392 0.1103,-0.83622 0.157,-1.21431 -0.6596,-6.78212 -1.3673,-13.56244 -2.2876,-20.31458 -0.159,-0.60924 -0.097,-1.34904 -0.4934,-1.86364 -0.055,-0.0375 -0.1269,-0.0516 -0.1921,-0.0347 z"
           id="path20037"
           transform="scale(0.26458333)" /><path
           style="fill:#ffffff;fill-opacity:1;stroke-width:0.0883883"
           d="m 1873.0967,287.21742 c -0.3963,0.26433 -0.3336,0.88087 -0.5161,1.28906 -1.4427,5.81157 -2.7546,11.65708 -3.939,17.52668 -0.055,0.62082 -0.3565,1.28419 -0.1708,1.89475 1.9554,2.23342 4.1325,4.26545 6.2082,6.38683 1.4506,1.42143 2.8596,2.89086 4.3623,4.2562 0.5086,0.0714 0.2602,-0.5878 0.2156,-0.86262 -1.5637,-6.81508 -3.4281,-13.56979 -4.4054,-20.49872 -0.5286,-3.27948 -0.9015,-6.58734 -1.5238,-9.84976 -0.038,-0.10935 -0.1247,-0.13933 -0.231,-0.14242 z"
           id="path20038"
           transform="scale(0.26458333)" /><path
           style="fill:#ffffff;fill-opacity:1;stroke-width:0.0883883"
           d="m 1868.906,311.39612 c -0.3628,0.28817 0,0.84547 -5e-4,1.23243 1.9298,8.7716 4.0792,17.49372 6.2377,26.21145 0.4657,1.72176 0.8158,3.4838 1.3911,5.17142 0.1323,0.3668 0.5824,0.1785 0.6289,-0.14657 0.566,-1.97003 0.8427,-4.01622 1.2565,-6.02326 0.844,-4.51463 1.6497,-9.03639 2.4709,-13.55527 -0.5322,-1.04054 -1.4297,-1.87913 -2.1649,-2.79183 -3.0284,-3.40974 -6.0967,-6.79913 -9.4336,-9.91167 -0.1119,-0.0847 -0.2277,-0.22427 -0.3861,-0.1867 z"
           id="path20039"
           transform="scale(0.26458333)" /><path
           style="fill:#ffffff;fill-opacity:1;stroke-width:0.0883883"
           d="m 1866.1266,310.6935 c -1.903,1.76344 -3.5273,3.80532 -5.265,5.72814 -2.2758,2.66071 -4.6446,5.25244 -6.7444,8.05664 -0.4008,0.42865 0.1094,0.86202 0.401,1.15406 6.3619,6.62752 12.8584,13.12558 19.3911,19.58441 0.2779,0.16283 0.564,0.83289 0.9103,0.47836 -0.094,-1.13298 -0.4793,-2.24401 -0.703,-3.36324 -2.1518,-8.89088 -4.3339,-17.77396 -6.4373,-26.67616 -0.4216,-1.618 -0.7586,-3.26301 -1.2767,-4.85328 -0.073,-0.10997 -0.1493,-0.13602 -0.276,-0.10893 z"
           id="path20040"
           transform="scale(0.26458333)" /><path
           style="fill:#ffffff;fill-opacity:1;stroke-width:0.0883883"
           d="m 1853.8888,328.49771 c -0.2691,0.3572 0.058,0.86521 0.068,1.27288 2.7609,13.26191 5.2674,26.58135 7.8835,39.87483 0.1974,0.60936 0.1593,1.38236 0.6201,1.86582 0.502,0.0885 0.6727,-0.60421 0.9357,-0.91461 2.6901,-4.72445 5.2437,-9.52584 7.9057,-14.26643 1.1699,-2.19501 2.4522,-4.34241 3.424,-6.63517 0.2342,-0.41745 0.07,-0.88449 -0.2779,-1.17857 -3.6622,-3.99233 -7.5615,-7.75981 -11.4029,-11.57799 -2.8894,-2.79425 -5.7102,-5.66873 -8.745,-8.30662 -0.1197,-0.0883 -0.25,-0.20508 -0.4112,-0.13414 z"
           id="path20041"
           transform="scale(0.26458333)" /><path
           style="fill:#ffffff;fill-opacity:1;stroke-width:0.0883883"
           d="m 1851.3606,327.50179 c -0.7519,0.43867 -1.2743,1.20792 -1.8936,1.81393 -2.934,3.35365 -5.6839,6.86421 -8.5195,10.30091 -1.4302,1.81526 -2.9845,3.5476 -4.2373,5.4936 -0.3493,0.44223 -0.1078,1.00065 0.2605,1.34118 6.2055,7.08979 12.6517,13.96382 19.0163,20.90988 1.2217,1.25123 2.3622,2.60413 3.7128,3.71768 0.3435,0.24086 0.613,-0.21871 0.4925,-0.52722 -0.6042,-3.74369 -1.4211,-7.45124 -2.1229,-11.17795 -2.0234,-10.18904 -3.9795,-20.39204 -6.1146,-30.55842 -0.1784,-0.40975 -0.061,-1.13082 -0.5512,-1.31497 z"
           id="path20042"
           transform="scale(0.26458333)" /><path
           style="fill:#ffffff;fill-opacity:1;stroke-width:0.125"
           d="m 1802.8782,364.00586 c -1.6118,0.38107 -2.5189,1.97012 -3.6185,3.06874 -8.5362,9.68734 -17.0676,19.38035 -25.488,29.16881 -0.413,0.57109 -1.0636,1.0989 -1.1526,1.81543 1.387,1.81482 3.1063,3.35562 4.6385,5.04772 7.4457,7.69616 14.791,15.49676 22.4873,22.94495 1.5889,1.45304 3.1419,3.0148 5.0268,4.08081 0.5215,-0.14413 0.1932,-0.93316 0.315,-1.33924 0.2234,-15.01897 0.1489,-30.04105 0.091,-45.06115 -0.1158,-5.65862 0.1275,-11.35228 -0.6209,-16.97689 -0.2194,-0.96731 -0.3041,-2.37939 -1.4157,-2.73649 -0.087,-0.0158 -0.1756,-0.0191 -0.2634,-0.0127 z"
           id="path20043"
           transform="scale(0.26458333)" /><path
           style="fill:#ffffff;fill-opacity:1;stroke-width:0.125"
           d="m 1807.168,361.0647 c -0.3209,3.8363 -0.1315,7.70551 -0.208,11.55515 -0.026,18.40467 -0.08,36.81015 0.065,55.21434 0.069,0.75346 0,1.55447 0.1958,2.27299 0.7657,-0.1374 1.4501,-0.75238 2.0843,-1.22892 3.9517,-3.55276 7.6021,-7.42603 11.3837,-11.1567 6.1346,-6.22798 12.3287,-12.40726 18.179,-18.90589 0.2684,-0.42514 1.1206,-0.95802 0.5595,-1.49145 -4.4291,-5.3141 -9.103,-10.42104 -13.6527,-15.6324 -6.0168,-6.7731 -11.9417,-13.62862 -17.9828,-20.3803 -0.1729,-0.12275 -0.3955,-0.50539 -0.6237,-0.24682 z"
           id="path20044"
           transform="scale(0.26458333)" /><path
           style="fill:#ffffff;fill-opacity:1;stroke-width:0.0441942"
           d="m 1843.0477,400.58661 c -2.0287,3.3e-4 -3.999,0.90303 -5.4228,2.32933 -2.4665,2.43916 -4.8624,4.94878 -7.2869,7.42949 -3.7216,3.85635 -7.4674,7.69277 -11.0425,11.68657 -0.4822,0.56538 -1.0043,1.10944 -1.3978,1.74187 -0.098,0.2464 0.229,0.40888 0.4104,0.24989 2.8558,-1.42971 5.6526,-2.97441 8.4698,-4.47835 6.8467,-3.7088 13.7042,-7.40039 20.4673,-11.26056 1.5005,-0.88618 3.0407,-1.71937 4.4513,-2.74685 0.1747,-0.16089 0.5669,-0.40609 0.3118,-0.65135 -1.9837,-1.8492 -4.2895,-3.51844 -6.9842,-4.10466 -0.6487,-0.13896 -1.313,-0.20681 -1.9764,-0.19538 z"
           id="path20045"
           transform="scale(0.26458333)" /><path
           style="fill:#ffffff;fill-opacity:1;stroke-width:0.0883883"
           d="m 1833.9037,347.1095 c -3.0853,1.1628 -6.0605,2.60669 -9.0998,3.88591 -5.2744,2.32204 -10.6398,4.43417 -15.8968,6.79492 -0.2835,0.18808 -1.0066,0.34965 -0.7954,0.81673 3.385,4.27419 7.0582,8.31008 10.6285,12.42838 6.0623,6.86548 12.0773,13.77382 18.2177,20.56963 0.878,0.90845 1.7133,1.88289 2.7147,2.65633 0.5274,0.0625 0.3416,-0.66136 0.3313,-0.97345 -0.826,-7.44934 -1.8906,-14.87166 -2.7843,-22.31197 -0.9693,-7.57984 -1.7942,-15.17866 -2.8479,-22.7473 -0.1227,-0.35626 -0.014,-0.96048 -0.4276,-1.12212 z"
           id="path20046"
           transform="scale(0.26458333)" /><path
           style="fill:#ffffff;fill-opacity:1;stroke-width:0.0883883"
           d="m 1836.7862,349.18369 c -0.4941,0.13497 -0.2609,0.81757 -0.2911,1.19186 0.4357,4.63626 1.1558,9.2409 1.6873,13.86587 1.2322,9.87116 2.3236,19.76095 3.6937,29.61419 -0.026,0.38147 0.294,1.01613 0.738,0.67994 1.7819,-1.37689 3.1922,-3.16536 4.7403,-4.78777 4.0016,-4.41892 8.0033,-8.83954 11.9608,-13.29749 0.4724,-0.58239 1.013,-1.45387 0.4794,-2.17346 -1.231,-1.6857 -2.7765,-3.1153 -4.1465,-4.68574 -6.0888,-6.61916 -12.1058,-13.3038 -18.1848,-19.93115 -0.202,-0.1719 -0.3843,-0.46873 -0.6771,-0.47625 z"
           id="path20047"
           transform="scale(0.26458333)" /><path
           style="fill:#ffffff;fill-opacity:1;stroke-width:0.0883883"
           d="m 1860.8164,377.56308 c -2.2952,2.31441 -4.377,4.83124 -6.5881,7.22535 -3.6888,4.13279 -7.4699,8.18535 -11.0766,12.39013 -0.4129,0.39575 0.2521,0.7041 0.5304,0.8961 3.2695,2.02539 6.6265,3.9221 10.0892,5.5982 0.3358,0.19937 0.7311,0.34157 1.077,0.0761 2.9132,-1.41502 5.7811,-2.93558 8.5566,-4.60463 0.5493,-0.38864 1.3001,-0.89719 1.1102,-1.68009 -1.2182,-6.17761 -2.0646,-12.42345 -3.1399,-18.62828 -0.1514,-0.4144 -0.031,-1.06635 -0.4045,-1.31159 -0.062,-0.0383 -0.1059,0.011 -0.1543,0.0387 z"
           id="path20048"
           transform="scale(0.26458333)" /><path
           style="fill:#ffffff;fill-opacity:1;stroke-width:0.0625"
           d="m 1863.2399,377.23852 c -0.3811,0.13326 -0.1444,0.63469 -0.1498,0.92329 0.8377,5.41007 1.7687,10.80561 2.6791,16.20384 0.1863,0.84931 0.2305,1.74934 0.5793,2.55293 0.118,0.33726 0.518,0.3 0.765,0.13391 3.3483,-1.70967 6.666,-3.4883 9.8843,-5.43339 0.3646,-0.27894 0.8899,-0.46687 1.0721,-0.91671 0,-0.47458 -0.5518,-0.69325 -0.8101,-1.02255 -4.4646,-4.12183 -8.9384,-8.23727 -13.55,-12.19477 -0.1405,-0.10041 -0.281,-0.2631 -0.4699,-0.24655 z"
           id="path20049"
           transform="scale(0.26458333)" /><path
           style="fill:#ffffff;fill-opacity:1;stroke-width:0.0625"
           d="m 1875.6506,353.64941 c -0.6201,0.0713 -0.9941,0.67638 -1.3754,1.10606 -1.2153,1.74828 -2.1435,3.67548 -3.1916,5.52463 -1.8014,3.35386 -3.7801,6.60873 -5.5906,9.95702 -0.7072,1.37515 -1.4774,2.95555 -1.0235,4.53424 0.5026,1.58134 1.839,2.68411 2.9896,3.80052 2.9541,2.66507 5.9752,5.25516 8.9344,7.91489 1.0662,0.88661 2.0447,1.91863 3.2764,2.57964 0.7476,0.39962 1.6623,0.21687 2.3413,-0.23879 1.0265,-0.56165 2.0826,-1.08334 3.0663,-1.71532 0.142,-0.34894 -0.1193,-0.73933 -0.1485,-1.0979 -2.2887,-9.30069 -4.5915,-18.59827 -6.9456,-27.88262 -0.4082,-1.35602 -0.7283,-2.78371 -1.512,-3.98347 -0.1933,-0.26496 -0.4729,-0.50871 -0.8208,-0.4989 z"
           id="path20050"
           transform="scale(0.26458333)" /><path
           style="fill:#ffffff;fill-opacity:1;stroke-width:0.0625"
           d="m 1879.2555,353.547 c -0.3269,0.17281 -0.059,0.59845 -0.06,0.87347 1.2176,5.76805 2.627,11.49375 3.9933,17.22785 1.1142,4.53108 2.1704,9.07866 3.4202,13.57482 0.035,0.32402 0.2868,0.64723 0.6429,0.5597 0.8106,-0.18503 1.4897,-0.71886 2.2301,-1.07581 2.9836,-1.68457 6.0517,-3.22672 8.9505,-5.05713 0.3677,-0.26641 0.8127,-0.51037 1.0078,-0.93506 -0.6263,-1.04306 -1.4543,-1.96845 -2.1877,-2.94371 -4.6489,-5.86095 -9.3942,-11.64553 -14.01,-17.5325 -1.2607,-1.55225 -2.457,-3.16362 -3.7999,-4.64537 -0.051,-0.0504 -0.1218,-0.0422 -0.1877,-0.0463 z"
           id="path20051"
           transform="scale(0.26458333)" /><path
           style="fill:#ffffff;fill-opacity:1;stroke-width:0.0625"
           d="m 1881.9449,331.08154 c -0.4547,0.0868 -0.4849,0.68407 -0.6199,1.03916 -0.618,2.62444 -1.0838,5.28251 -1.6642,7.91398 -0.4383,2.33473 -1.0983,4.70634 -0.7904,7.10045 0.3772,2.70912 2.0173,4.99772 3.5545,7.1755 2.8216,3.77674 5.8554,7.3886 8.7893,11.07742 2.8618,3.56977 5.733,7.13305 8.496,10.78016 0.161,0.27422 0.5476,0.0317 0.422,-0.24145 -0.5027,-1.6112 -1.2899,-3.11799 -1.9507,-4.66782 -4.2886,-9.66371 -8.386,-19.41392 -11.9709,-29.36215 -1.1753,-3.21387 -2.1622,-6.49545 -3.3871,-9.6924 -0.209,-0.38802 -0.3442,-1.0767 -0.8786,-1.12285 z"
           id="path20052"
           transform="scale(0.26458333)" /></g></g></g></svg>
