<?xml version="1.0" encoding="utf-8" ?><svg xmlns="http://www.w3.org/2000/svg" xmlns:xlink="http://www.w3.org/1999/xlink" width="1024" height="1024" viewBox="0 0 1024 1024"><path fill="#0AB9A8" d="M552.953 272.177C567.241 271.169 576.566 278.028 581.239 291.22C703.913 322.323 787.317 380.069 865.265 482.066C870.782 490.268 882.531 502.319 883.178 512.413C889.168 605.802 857.694 688.549 802.072 761.476C799.459 750.842 798.591 740.176 795.484 729.287C790.725 712.611 768.266 651.472 745.318 653.446C736.176 653.505 732.533 662.556 727.701 668.823C681.075 729.284 604.163 764.86 528.586 768.485C513.89 769.19 499.218 767.504 484.591 768.504C497.837 753.805 538.348 727.52 530.417 704.191C521.209 688.671 495.106 705.235 482.436 709.1C416.455 729.229 313.191 717.568 273.874 654.14C340.262 672.76 441.059 646.741 497.582 613.196C539.017 588.604 578.428 546.077 590.562 498.408C585.229 478.998 569.342 448.985 551.531 438.326C540.692 430.914 515.329 425.057 502.678 430.531C465.299 446.703 429.041 460.239 389.846 435.286C370.142 422.712 351.712 400.737 344.65 378.263C340.809 362.725 363.906 361.928 370.179 355.265C403.005 320.399 429.93 297.941 480.274 289.426C490.157 287.754 500.253 287.679 510.148 286.254C524.619 282.442 537.833 274.887 552.953 272.177ZM375.853 400.442C401.579 427.573 443.306 432.993 476.972 417.371C482.755 414.687 488.356 411.029 494.447 409.005C554.017 392.713 592.011 434.28 610.42 484.939C611.769 459.009 605.329 417.661 582.771 400.442C580.269 397.66 577.202 394.801 574.492 392.165C578.38 393.785 581.373 395.151 585.124 397.06C663.7 434.697 692.049 530.941 669.326 610.786C674.806 601.674 677.532 593.372 680.822 583.395C710.163 494.391 671.362 391.954 583.97 353.189C577.87 350.483 571.678 348.417 565.736 345.327C692.903 355.395 769.323 480.118 780.552 598.377C782.237 616.127 779.497 630.345 780.461 645.688C782.782 631.53 786.571 618.952 787.953 604.317C801.122 464.832 711.252 333.159 568.943 313.13C563.221 323.277 553.804 330.062 542.586 332.945C549.424 322.392 568.869 311.199 557.246 294.623C542.57 297.751 531.583 304.741 519.206 308.072C509.072 310.799 490.594 310.1 478.43 312.95C451.526 319.254 400.384 347.638 379.086 367.596C412.88 375.617 398.262 396.273 375.853 400.442Z"/><path fill="#0AB9A8" d="M473.851 345.327C474.555 344.961 474.474 345.104 475.395 345.102L475.332 345.751C462.921 363.497 450.77 368.823 429.892 363.56C428.014 363.028 425.651 362.075 423.778 361.383C443.583 344.213 448.222 345.461 473.851 345.327Z"/><path fill="#0AB9A8" d="M574.492 392.165C578.38 393.785 581.373 395.151 585.124 397.06C584.282 398.162 583.393 399.209 582.771 400.442C580.269 397.66 577.202 394.801 574.492 392.165Z"/><path fill="#0AB9A8" d="M494.306 158.296C506.059 158.375 517.727 158.08 529.481 158.643C692.856 166.466 829.251 281.747 870.258 439.188C832.124 391.095 790.616 354.82 739.19 322.461C736.178 320.566 730.424 313.764 727.485 310.887C637.089 223.274 505.164 194.879 388.733 247.42C144.637 357.571 138.809 697.444 381.454 809.329C397.59 816.769 412.502 822.712 429.892 826.881C535.319 860.576 662.99 819.404 736.814 739.1C742.612 732.794 748.496 723.329 755.073 718.213C763.112 747.371 769.834 760.864 769.495 794.214C762.56 802.941 747.303 814.896 738.238 821.852C605.011 924.627 416.147 925.166 282.563 822.249C136.114 709.987 96.5426 496.472 193.72 339.368C264.786 224.478 364.046 173.337 494.306 158.296Z"/></svg>