<?xml version="1.0" encoding="UTF-8" standalone="no"?>
<!-- Created with Inkscape (http://www.inkscape.org/) -->

<svg
   width="632.87018mm"
   height="196.02927mm"
   viewBox="0 0 632.87018 196.02927"
   version="1.1"
   id="svg1"
   sodipodi:docname="Unnamed document 1"
   xml:space="preserve"
   xmlns:inkscape="http://www.inkscape.org/namespaces/inkscape"
   xmlns:sodipodi="http://sodipodi.sourceforge.net/DTD/sodipodi-0.dtd"
   xmlns="http://www.w3.org/2000/svg"
   xmlns:svg="http://www.w3.org/2000/svg"><sodipodi:namedview
     id="namedview1"
     pagecolor="#505050"
     bordercolor="#eeeeee"
     borderopacity="1"
     inkscape:showpageshadow="0"
     inkscape:pageopacity="0"
     inkscape:pagecheckerboard="0"
     inkscape:deskcolor="#505050"
     inkscape:document-units="mm"
     showguides="true"><sodipodi:guide
       position="142.0491,-1.3087776"
       orientation="0,-1"
       id="guide2"
       inkscape:locked="false" /><inkscape:page
       x="0"
       y="0"
       width="632.87018"
       height="196.02927"
       id="page2"
       margin="0"
       bleed="0" /></sodipodi:namedview><defs
     id="defs1" /><g
     inkscape:label="Layer 1"
     inkscape:groupmode="layer"
     id="layer1"
     transform="translate(-297.38335,-94.285863)"><g
       id="g2"
       inkscape:export-filename="logo2.svg"
       inkscape:export-xdpi="96"
       inkscape:export-ydpi="96"><g
         id="g1"
         transform="matrix(0.26458333,0,0,0.26458333,260.20868,52.405646)"
         style="fill:#0ab9a8;fill-opacity:1"><path
           fill="#0ab9a8"
           d="m 552.953,272.177 c 14.288,-1.008 23.613,5.851 28.286,19.043 122.674,31.103 206.078,88.849 284.026,190.846 5.517,8.202 17.266,20.253 17.913,30.347 5.99,93.389 -25.484,176.136 -81.106,249.063 -2.613,-10.634 -3.481,-21.3 -6.588,-32.189 -4.759,-16.676 -27.218,-77.815 -50.166,-75.841 -9.142,0.059 -12.785,9.11 -17.617,15.377 -46.626,60.461 -123.538,96.037 -199.115,99.662 -14.696,0.705 -29.368,-0.981 -43.995,0.019 13.246,-14.699 53.757,-40.984 45.826,-64.313 -9.208,-15.52 -35.311,1.044 -47.981,4.909 -65.981,20.129 -169.245,8.468 -208.562,-54.96 66.388,18.62 167.185,-7.399 223.708,-40.944 41.435,-24.592 80.846,-67.119 92.98,-114.788 -5.333,-19.41 -21.22,-49.423 -39.031,-60.082 -10.839,-7.412 -36.202,-13.269 -48.853,-7.795 -37.379,16.172 -73.637,29.708 -112.832,4.755 -19.704,-12.574 -38.134,-34.549 -45.196,-57.023 -3.841,-15.538 19.256,-16.335 25.529,-22.998 32.826,-34.866 59.751,-57.324 110.095,-65.839 9.883,-1.672 19.979,-1.747 29.874,-3.172 14.471,-3.812 27.685,-11.367 42.805,-14.077 z m -177.1,128.265 c 25.726,27.131 67.453,32.551 101.119,16.929 5.783,-2.684 11.384,-6.342 17.475,-8.366 59.57,-16.292 97.564,25.275 115.973,75.934 1.349,-25.93 -5.091,-67.278 -27.649,-84.497 -2.502,-2.782 -5.569,-5.641 -8.279,-8.277 3.888,1.62 6.881,2.986 10.632,4.895 78.576,37.637 106.925,133.881 84.202,213.726 5.48,-9.112 8.206,-17.414 11.496,-27.391 29.341,-89.004 -9.46,-191.441 -96.852,-230.206 -6.1,-2.706 -12.292,-4.772 -18.234,-7.862 127.167,10.068 203.587,134.791 214.816,253.05 1.685,17.75 -1.055,31.968 -0.091,47.311 2.321,-14.158 6.11,-26.736 7.492,-41.371 13.169,-139.485 -76.701,-271.158 -219.01,-291.187 -5.722,10.147 -15.139,16.932 -26.357,19.815 6.838,-10.553 26.283,-21.746 14.66,-38.322 -14.676,3.128 -25.663,10.118 -38.04,13.449 -10.134,2.727 -28.612,2.028 -40.776,4.878 -26.904,6.304 -78.046,34.688 -99.344,54.646 33.794,8.021 19.176,28.677 -3.233,32.846 z"
           id="path1"
           style="fill:#0ab9a8;fill-opacity:1" /><path
           fill="#0ab9a8"
           d="m 473.851,345.327 c 0.704,-0.366 0.623,-0.223 1.544,-0.225 l -0.063,0.649 c -12.411,17.746 -24.562,23.072 -45.44,17.809 -1.878,-0.532 -4.241,-1.485 -6.114,-2.177 19.805,-17.17 24.444,-15.922 50.073,-16.056 z"
           id="path2"
           style="fill:#0ab9a8;fill-opacity:1" /><path
           fill="#0ab9a8"
           d="m 574.492,392.165 c 3.888,1.62 6.881,2.986 10.632,4.895 -0.842,1.102 -1.731,2.149 -2.353,3.382 -2.502,-2.782 -5.569,-5.641 -8.279,-8.277 z"
           id="path3"
           style="fill:#0ab9a8;fill-opacity:1" /><path
           fill="#0ab9a8"
           d="m 494.306,158.296 c 11.753,0.079 23.421,-0.216 35.175,0.347 163.375,7.823 299.77,123.104 340.777,280.545 C 832.124,391.095 790.616,354.82 739.19,322.461 736.178,320.566 730.424,313.764 727.485,310.887 637.089,223.274 505.164,194.879 388.733,247.42 144.637,357.571 138.809,697.444 381.454,809.329 c 16.136,7.44 31.048,13.383 48.438,17.552 105.427,33.695 233.098,-7.477 306.922,-87.781 5.798,-6.306 11.682,-15.771 18.259,-20.887 8.039,29.158 14.761,42.651 14.422,76.001 -6.935,8.727 -22.192,20.682 -31.257,27.638 C 605.011,924.627 416.147,925.166 282.563,822.249 136.114,709.987 96.5426,496.472 193.72,339.368 264.786,224.478 364.046,173.337 494.306,158.296 Z"
           id="path4"
           style="fill:#0ab9a8;fill-opacity:1" /></g><text
         xml:space="preserve"
         style="font-style:normal;font-variant:normal;font-weight:bold;font-stretch:normal;font-size:141.111px;font-family:'JetBrains Mono NL';-inkscape-font-specification:'JetBrains Mono NL Bold';text-align:start;writing-mode:lr-tb;direction:ltr;text-anchor:start;fill:#0ab9a8;fill-opacity:1;stroke-width:0.264583"
         x="515.3869"
         y="235.01497"
         id="text2"><tspan
           sodipodi:role="line"
           id="tspan2"
           style="font-style:normal;font-variant:normal;font-weight:bold;font-stretch:normal;font-size:141.111px;font-family:'JetBrains Mono NL';-inkscape-font-specification:'JetBrains Mono NL Bold';fill:#0ab9a8;fill-opacity:1;stroke-width:0.264583"
           x="515.3869"
           y="235.01497">OTTY_</tspan></text></g></g></svg>
