<?xml version="1.0" encoding="UTF-8" standalone="no"?>
<svg
   width="439.38727"
   height="107.279"
   viewBox="0 0 439.38727 107.279"
   version="1.1"
   id="svg136"
   xmlns="http://www.w3.org/2000/svg"
   xmlns:svg="http://www.w3.org/2000/svg">
  <defs
     id="defs136" />
  <g
     id="g144"
     transform="translate(613.72034,77.124557)">
    <g
       id="g138"
       transform="translate(-232.72727,-411.15152)">
      <path
         fill="#201e2b"
         d="m -342.57164,336.90833 c 4.755,-0.909 9.603,-0.924 14.256,-1.548 13.98,-1.874 27.13,-1.666 41.122,-0.041 4.68,0.544 10.118,0.494 14.709,1.963 5.423,1.989 14.575,8.199 18.633,12.083 0.363,0.258 1.935,1.413 2.22,1.552 13.186,-3.656 17.582,-0.771 18.388,13.202 -3.538,4.091 -7.17,8.067 -10.738,12.127 l 3.217,17.819 c -1.926,4.739 -12.36,25.232 -15.295,28.682 -1.916,2.209 -4.306,3.954 -6.993,5.107 -3.766,1.634 -7.14,2.095 -11.184,1.877 -3.978,-0.099 -5.161,-0.79 -8.029,2.32 l -5.105,4.393 c -1.986,2.282 -2.585,2.792 -5.009,4.622 -8.527,0.591 -21.918,-0.076 -30.714,-0.247 -2.598,-2.016 -5.305,-3.967 -7.55,-6.358 l -2.651,-2.47 c -1.976,-3.275 -10.211,-2.403 -13.817,-2.428 -13.184,-3.71 -20.154,-22.268 -26.934,-34.165 l 0.022,-1.998 c 2.315,-2.781 9.743,-13.864 11.83,-14.739 3.403,-6.156 5.756,-12.677 9.19,-18.94 l 0.872,-1.292 c 0.917,-2.942 8.356,-17.228 10.128,-20.44 z"
         id="path13" />
      <path
         fill="#2fbfcd"
         d="m -342.57164,336.90833 c 4.755,-0.909 9.603,-0.924 14.256,-1.548 13.98,-1.874 27.13,-1.666 41.122,-0.041 4.68,0.544 10.118,0.494 14.709,1.963 5.423,1.989 14.575,8.199 18.633,12.083 0.363,0.258 1.935,1.413 2.22,1.552 13.186,-3.656 17.582,-0.771 18.388,13.202 -3.538,4.091 -7.17,8.067 -10.738,12.127 l 3.217,17.819 c -1.926,4.739 -12.36,25.232 -15.295,28.682 -1.916,2.209 -4.306,3.954 -6.993,5.107 -3.766,1.634 -7.14,2.095 -11.184,1.877 -8.037,-0.796 -16.374,-2.74 -24.311,-4.311 -3.032,-0.6 -6.17,-1.36 -7.373,-4.398 0.13,-0.793 0.428,-1.498 1.074,-1.992 6.752,-5.153 12.692,-10.099 18.777,-16.049 -1.975,-3.117 -4.065,-6.268 -5.703,-9.565 -1.685,-1.15 -1.807,-2.357 -4.53,-3.758 -3.561,-1.636 -7.588,-1.578 -11.4,-1.422 l 0.364,-8.488 c -0.131,-11.366 -0.597,-32.496 0.175,-43.368 1.294,-0.743 3.295,-0.553 4.951,-0.593 -6.99,-1.657 -32.328,3.359 -39.791,2.202 z"
         id="path14" />
      <path
         fill="#12191f"
         d="m -302.21264,335.78733 c 4.295,0.342 27.312,1.651 29.577,3.104 0.561,0.435 1.962,1.454 2.365,1.92 3.387,6.555 16.153,31.255 17.605,37.138 l -0.644,0.205 c -1.615,3.291 -10.795,12.571 -13.682,15.547 -1.337,1.088 -1.051,0.562 -1.691,1.983 -1.062,-1.548 -4.798,-0.901 -6.267,0.079 -5.813,-0.603 -17.188,-10.908 -21.293,-14.96 l -1.011,-0.608 c -2.934,-0.294 -7.052,-0.333 -10.085,-0.447 -0.131,-11.366 -0.597,-32.496 0.175,-43.368 1.294,-0.743 3.295,-0.553 4.951,-0.593 z"
         id="path15" />
      <path
         fill="#201e2b"
         d="m -290.31664,365.05933 c 7.454,-1.806 20.368,-4.25 27.847,-4.938 2.318,4.653 6.599,14.053 9.16,18.033 -1.615,3.291 -10.795,12.571 -13.682,15.547 -1.337,1.088 -1.051,0.562 -1.691,1.983 -1.062,-1.548 -4.798,-0.901 -6.267,0.079 -5.813,-0.603 -17.188,-10.908 -21.293,-14.96 2.18,-4.422 4.283,-10.954 5.926,-15.744 z"
         id="path16" />
      <path
         fill="#db33ea"
         d="m -275.46064,367.75033 c 4.319,-0.47 8.744,5.559 10.634,8.946 -2.08,5.215 -2.981,7.333 -8.21,9.912 -0.831,-0.065 -1.655,-0.194 -2.466,-0.387 -5.236,-1.217 -9.803,-5.18 -7.946,-10.986 1.395,-4.361 4.253,-5.478 7.988,-7.485 z"
         id="path17" />
      <path
         fill="#e7159c"
         d="m -272.63564,338.89133 c 0.561,0.435 1.962,1.454 2.365,1.92 3.387,6.555 16.153,31.255 17.605,37.138 l -0.644,0.205 c -2.561,-3.98 -6.842,-13.38 -9.16,-18.033 -7.479,0.688 -20.393,3.132 -27.847,4.938 -1.643,4.79 -3.746,11.322 -5.926,15.744 l -1.011,-0.608 5.794,-16.69 c 9.423,-1.653 18.644,-3.777 28.19,-5.374 -2.301,-5.563 -6.6,-13.63 -9.366,-19.24 z"
         id="path18" />
      <path
         fill="#e7159c"
         d="m -307.33864,379.74833 c 3.033,0.114 7.151,0.153 10.085,0.447 l 1.011,0.608 c 4.105,4.052 15.48,14.357 21.293,14.96 1.469,-0.98 5.205,-1.627 6.267,-0.079 -0.132,5.806 2.039,27.547 1.005,29.678 l 0.499,2.466 -1.007,0.641 -1.497,-1.119 -0.21,-0.369 c -1.23,-3.948 -18.63,-31.148 -21.88,-33.565 -1.685,-1.15 -1.807,-2.357 -4.53,-3.758 -3.561,-1.636 -7.588,-1.578 -11.4,-1.422 z"
         id="path19" />
      <path
         fill="#12191f"
         d="m -274.94964,395.76333 c 1.469,-0.98 5.205,-1.627 6.267,-0.079 -0.132,5.806 2.039,27.547 1.005,29.678 -2.281,-6.913 -5.378,-25.391 -7.272,-29.599 z"
         id="path20" />
      <path
         fill="#15465b"
         d="m -268.68264,395.68433 c 0.64,-1.421 0.354,-0.895 1.691,-1.983 7.48,1.266 16.416,0.335 23.967,1.852 -3.789,7.593 -9.86,21.559 -15.489,27.834 -1.113,1.241 -6.754,3.124 -8.665,4.441 l -0.499,-2.466 c 1.034,-2.131 -1.137,-23.872 -1.005,-29.678 z"
         id="path21" />
      <path
         fill="#15465b"
         d="m -285.67564,404.32533 c 3.754,5.636 11.538,17.898 15.783,22.656 l 0.21,0.369 -0.817,0.753 c -4.816,0.741 -32.021,-3.508 -34.186,-6.817 3.536,-4.027 13.858,-11.726 19.01,-16.961 z"
         id="path22" />
      <path
         fill="#12191f"
         d="m -270.27064,340.81133 c 3.053,0.487 11.715,6.364 14.525,8.509 1.895,5.239 3.899,10.437 6.013,15.591 0.887,2.153 3.891,8.994 4.32,11.017 1.033,4.873 1.175,9.835 2.332,14.986 -2.2,-2.741 -8.215,-11.487 -9.585,-12.965 -1.452,-5.883 -14.218,-30.583 -17.605,-37.138 z"
         id="path23" />
      <path
         fill="#12191f"
         d="m -253.85164,349.36533 c 0.363,0.258 1.935,1.413 2.22,1.552 2.876,0.851 8.7,0.62 11.969,0.672 3.435,4.386 3.733,7.053 4.647,12.361 -3.309,3.826 -6.762,7.423 -9.119,11.873 -1.454,-6.581 -7.399,-18.314 -9.717,-26.458 z"
         id="path24" />
      <path
         fill="#2fbfcd"
         d="m -248.79964,355.93633 c 2.424,-0.167 4.936,-0.677 7.092,0.743 3.215,2.119 2.444,5.452 0.424,8.14 -0.625,1.234 -0.692,1.635 -1.765,2.504 l -1.044,-0.447 c -1.78,-2.178 -3.628,-8.064 -4.707,-10.94 z"
         id="path25" />
      <path
         fill="#15465b"
         d="m -252.94364,380.16533 c 3.391,4.098 7.271,9.289 10.392,13.617 -3.009,-0.222 -6.3,-0.619 -9.328,-0.92 l -12.074,-0.626 c 3.538,-3.529 7.938,-8.218 11.01,-12.071 z"
         id="path26" />
      <path
         fill="#12191f"
         d="m -319.12564,390.02833 c 10.281,-1.343 12.565,-1.723 22.823,-0.37 2.723,1.401 2.845,2.608 4.53,3.758 1.638,3.297 3.728,6.448 5.703,9.565 -6.085,5.95 -12.025,10.896 -18.777,16.049 -0.646,0.494 -0.944,1.199 -1.074,1.992 1.203,3.038 4.341,3.798 7.373,4.398 7.937,1.571 16.274,3.515 24.311,4.311 -3.978,-0.099 -5.161,-0.79 -8.029,2.32 l -5.105,4.393 c -1.986,2.282 -2.585,2.792 -5.009,4.622 -8.527,0.591 -21.918,-0.076 -30.714,-0.247 -2.598,-2.016 -5.305,-3.967 -7.55,-6.358 l -2.651,-2.47 c -1.976,-3.275 -10.211,-2.403 -13.817,-2.428 11.587,-0.365 25.768,-2.714 37.107,-5.454 0.09,-0.58 0.726,-4.806 0.257,-5.106 -7.166,-4.577 -13.161,-10.115 -19.214,-16.065 3.906,-5.332 3.959,-8.043 9.836,-12.91 z"
         id="path27" />
      <path
         fill="#15465b"
         d="m -310.21364,427.22333 0.432,0.288 c 1.167,-0.326 1.715,-0.464 2.929,-0.636 l 1.001,-0.139 c 7.224,1.485 16.425,3.448 23.586,5.315 l -5.105,4.393 c -1.986,2.282 -2.585,2.792 -5.009,4.622 -8.527,0.591 -21.918,-0.076 -30.714,-0.247 -2.598,-2.016 -5.305,-3.967 -7.55,-6.358 l -2.651,-2.47 c 3.634,-1.494 18.404,-3.843 23.081,-4.768 z"
         id="path28" />
      <path
         fill="#e7159c"
         d="m -305.85164,426.73633 c 7.224,1.485 16.425,3.448 23.586,5.315 l -5.105,4.393 c -1.789,1.107 -3.855,2.942 -5.453,2.656 -3.762,-4.158 -10.235,-8.619 -13.028,-12.364 z"
         id="path29" />
      <path
         fill="#e7159c"
         d="m -333.29464,431.99133 c 3.634,-1.494 18.404,-3.843 23.081,-4.768 -2.338,3.141 -9.963,9.661 -13.232,11.63 -1.175,-0.345 -5.762,-3.468 -7.198,-4.392 z"
         id="path30" />
      <path
         fill="#068b9e"
         d="m -330.64364,434.46133 c 1.436,0.924 6.023,4.047 7.198,4.392 7.218,0.687 23.454,0.792 30.622,0.247 1.598,0.286 3.664,-1.549 5.453,-2.656 -1.986,2.282 -2.585,2.792 -5.009,4.622 -8.527,0.591 -21.918,-0.076 -30.714,-0.247 -2.598,-2.016 -5.305,-3.967 -7.55,-6.358 z"
         id="path31" />
      <path
         fill="#10cac3"
         d="m -300.25064,398.12633 c 2.257,-0.294 5.345,-0.383 7.676,-0.521 -3.107,8.282 -9.374,23.45 -20.679,16.129 -4.526,-5.277 -6.699,-9.392 -9.627,-15.611 7.519,0.231 15.121,0.445 22.63,0.003 z"
         id="path32" />
      <path
         fill="#12191f"
         d="m -315.32364,400.05933 20.066,-0.276 c -1.932,4.952 -3.514,7.618 -6.656,11.859 -8.076,6.386 -16.68,-4.135 -17.01,-10.693 1.294,-1.059 1.539,-0.717 3.6,-0.89 z"
         id="path33" />
      <path
         fill="#10cac3"
         d="m -362.19364,378.66133 0.607,0.141 c 4.317,4.631 8.356,8.923 12.882,13.352 l 0.731,0.873 c 0.983,0.931 1.794,1.618 2.643,2.678 -0.579,4.512 -3.754,27.724 -2.811,31.122 l 0.699,0.627 0.15,-0.462 c 3.998,-1.863 13.673,-21.926 17.799,-24.206 l 0.532,0.152 c 6.053,5.95 12.048,11.488 19.214,16.065 0.469,0.3 -0.167,4.526 -0.257,5.106 -11.339,2.74 -25.52,5.089 -37.107,5.454 -13.184,-3.71 -20.154,-22.268 -26.934,-34.165 l 0.022,-1.998 c 2.315,-2.781 9.743,-13.864 11.83,-14.739 z"
         id="path34" />
      <path
         fill="#10cac3"
         d="m -362.19364,378.66133 0.607,0.141 c 4.317,4.631 8.356,8.923 12.882,13.352 l 0.731,0.873 c -3.269,1.767 -21.797,2.588 -26.072,2.371 l 0.022,-1.998 c 2.315,-2.781 9.743,-13.864 11.83,-14.739 z"
         id="path35" />
      <path
         fill="#84f1ea"
         d="m -362.19364,378.66133 0.607,0.141 -11.446,15.441 c 8.091,-0.894 16.203,-1.591 24.328,-2.089 l 0.731,0.873 c -3.269,1.767 -21.797,2.588 -26.072,2.371 l 0.022,-1.998 c 2.315,-2.781 9.743,-13.864 11.83,-14.739 z"
         id="path36" />
      <path
         fill="#84f1ea"
         d="m -347.29264,426.99233 c 3.998,-1.863 13.673,-21.926 17.799,-24.206 -1.066,2.889 -14.795,24.08 -16.951,25.478 -0.86,-0.583 -0.561,-0.276 -0.998,-0.81 z"
         id="path37" />
      <path
         fill="#15465b"
         d="m -342.00364,337.98933 c 7.463,1.157 32.801,-3.859 39.791,-2.202 -1.656,0.04 -3.657,-0.15 -4.951,0.593 -0.772,10.872 -0.306,32.002 -0.175,43.368 -3.029,0.018 -6.723,0.568 -9.615,0.259 -0.897,-0.096 -0.842,-0.523 -1.527,-1.586 -0.968,-3.816 -4.166,-11.019 -5.772,-14.88 -4.949,-1.308 -23.853,-5.346 -27.879,-5.112 0.917,-2.942 8.356,-17.228 10.128,-20.44 z"
         id="path38" />
      <path
         fill="#10cac3"
         d="m -318.48064,378.42133 c 0.685,1.063 0.63,1.49 1.527,1.586 2.892,0.309 6.586,-0.241 9.615,-0.259 l -0.364,8.488 c 3.812,-0.156 7.839,-0.214 11.4,1.422 -10.258,-1.353 -12.542,-0.973 -22.823,0.37 -5.877,4.867 -5.93,7.578 -9.836,12.91 l -0.532,-0.152 c -4.126,2.28 -13.801,22.343 -17.799,24.206 0.205,-4.462 5.453,-24.376 6.833,-29.48 5.901,-3.354 17.024,-11.394 21.328,-16.53 l -0.139,-1.128 z"
         id="path39" />
      <path
         fill="#10cac3"
         d="m -352.13164,358.42933 c 4.026,-0.234 22.93,3.804 27.879,5.112 1.606,3.861 4.804,11.064 5.772,14.88 l -0.79,1.433 c -1.938,-5.057 -3.93,-10.093 -5.976,-15.107 -8.098,-1.362 -20.184,-4.618 -27.757,-5.026 z"
         id="path40" />
      <path
         fill="#db33ea"
         d="m -341.72964,367.75933 c 11.138,4.545 15.133,13.198 2.208,18.743 -6.668,-1.036 -7.709,-4.091 -10.325,-9.804 2.472,-4.396 4.326,-5.772 8.117,-8.939 z"
         id="path41" />
      <path
         fill="#10cac3"
         d="m -362.01164,351.35033 c 1.733,-4.845 14.577,-11.891 19.44,-14.442 l 0.568,1.081 c -1.772,3.212 -9.211,17.498 -10.128,20.44 l -0.872,1.292 c -3.434,6.263 -5.787,12.784 -9.19,18.94 -2.087,0.875 -9.515,11.958 -11.83,14.739 0.527,-6.188 1.477,-11.384 2.538,-17.497 1.276,-8.72 -1.666,-4.795 -5.013,-12.389 -0.495,-1.124 -0.085,-3.765 -0.583,-5.879 l -0.635,0.47 c -1.58,2.912 -0.256,5.51 0.704,8.771 2.334,2.588 3.123,3.577 5.032,6.512 l -0.37,-0.26 -0.611,-0.44 c -4.17,-2.96 -5.164,-4.223 -7.88,-8.407 -1.133,-13.715 4.061,-16.479 16.605,-13.081 0.484,0.039 1.819,0.18 2.225,0.15 z"
         id="path57" />
      <path
         fill="#12191f"
         d="m -380.84164,364.28133 c -1.133,-13.715 4.061,-16.479 16.605,-13.081 0.484,0.039 1.819,0.18 2.225,0.15 -0.504,4.947 -7.139,19.284 -9.474,24.553 1.276,-8.72 -1.666,-4.795 -5.013,-12.389 -0.495,-1.124 -0.085,-3.765 -0.583,-5.879 l -0.635,0.47 c -1.58,2.912 -0.256,5.51 0.704,8.771 2.334,2.588 3.123,3.577 5.032,6.512 l -0.37,-0.26 -0.611,-0.44 c -4.17,-2.96 -5.164,-4.223 -7.88,-8.407 z"
         id="path58" />
      <path
         fill="#10cac3"
         d="m -380.84164,364.28133 c -1.133,-13.715 4.061,-16.479 16.605,-13.081 -10.473,0.213 -15.734,-1.274 -15.191,11.599 0.088,2.102 0.998,2.809 2.415,4.077 2.334,2.588 3.123,3.577 5.032,6.512 l -0.37,-0.26 -0.611,-0.44 c -4.17,-2.96 -5.164,-4.223 -7.88,-8.407 z"
         id="path59" />
      <path
         fill="#10cac3"
         d="m -373.24664,355.41433 c 2.151,-0.009 5.03,0.325 7.229,0.514 -1.264,3.76 -2.892,7.678 -4.355,11.386 l -0.584,0.645 c -3.699,-2.451 -5.929,-8.672 -2.29,-12.545 z"
         id="path60" />
    </g>
    <path
       fill="#10cac3"
       d="m -448.11165,-53.980538 c 7.29904,-6.361654 21.91275,-16.276596 31.92026,-11.944649 7.7057,6.325318 15.08815,9.577522 22.38719,15.651073 l -33.96138,2.182844 -7.02793,10.532679 c -5.10933,-1.801301 -13.13827,-11.010257 -13.31814,-16.421947 z"
       id="path90"
       style="stroke-width:2.60116" />
    <path
       fill="#e7159c"
       d="m -416.19139,-65.925187 c 7.7057,6.325318 15.08815,9.577522 22.38719,15.651073 l -33.96138,2.182844 c 4.32468,-7.93974 5.77927,-10.802614 11.57419,-17.833917 z"
       id="path91"
       style="stroke-width:2.60116" />
    <path
       fill="#10cac3"
       d="m -450.93481,-48.322273 c 0.9593,-3.125023 0.91759,-2.984864 2.82316,-5.658265 0.17987,5.41169 8.20881,14.620646 13.31814,16.421947 l -1.60058,6.927481 c -3.04213,12.808962 4.03533,22.1191441 1.81173,27.917568 -2.19232,-2.1620802 -4.41331,-4.2904184 -6.66559,-6.3876102 -5.05458,-4.6460068 -5.80795,-4.3916438 -12.10858,-4.1840018 -0.97234,-14.553161 -1.78305,-21.021233 2.42172,-35.037119 z"
       id="path95"
       style="stroke-width:2.60116" />
    <path
       fill="#12191f"
       d="m -450.93481,-48.322273 c 0.9593,-3.125023 0.91759,-2.984864 2.82316,-5.658265 0.17987,5.41169 8.20881,14.620646 13.31814,16.421947 l -1.60058,6.927481 c -4.20216,-6.96901 -9.02474,-11.765557 -14.54072,-17.691163 z"
       id="path96"
       style="fill:#10cac3;fill-opacity:1;stroke-width:2.60116" />
    <path
       fill="#2fbfcd"
       d="m -409.54927,-0.54627082 c 8.18014,-0.68781658 14.92132,-9.30239528 19.71001,-7.91118888 0.70123,5.0457189 -0.37016,7.63865777 -1.59275,12.710332 -6.22504,6.1695857 -14.46253,14.5869037 -23.7297,15.5316777 -3.50875,-4.337138 -6.75421,-7.155888 -10.65399,-12.3210017 l 0.55525,-3.3664081 c -1.16002,-2.1283382 -0.74554,-1.3367002 -0.68298,-4.12170861 5.26313,-3.08349489 10.21344,-1.70526609 16.39416,-0.52170241 z"
       id="path98"
       style="fill:#10cac3;fill-opacity:1;stroke-width:2.60116" />
    <path
       fill="#2fbfcd"
       d="m -425.26045,4.0971402 c -1.16002,-2.1283382 -0.74554,-1.3367002 -0.68298,-4.12170861 5.26313,-3.08349489 10.21344,-1.70526609 16.39416,-0.52170241 -3.28457,2.95890922 -7.44241,7.59712922 -11.45688,8.09806732 -1.75959,-1.3263181 -2.60159,-1.9674151 -4.2543,-3.4546563 z"
       id="path99"
       style="fill:#10cac3;fill-opacity:1;stroke-width:2.60116" />
    <path
       fill="#e7159c"
       d="m -453.35653,-13.285154 c 6.30063,-0.207642 7.054,-0.462005 12.10858,4.1840018 2.25228,2.0971918 4.47327,4.22553 6.66559,6.3876102 2.86226,3.38976788 5.74799,6.9430545 8.76666,10.1770903 3.89978,5.1651137 7.14524,7.9838637 10.65399,12.3210017 -9.06384,1.671524 -26.88913,-5.990493 -32.65798,-13.1463816 -6.19375,-7.6827818 -5.83402,-10.2783162 -5.53684,-19.9233224 z"
       id="path101"
       style="stroke-width:2.60116" />
    <text
       xml:space="preserve"
       style="font-style:normal;font-variant:normal;font-weight:bold;font-stretch:normal;font-size:120px;font-family:'IBM Plex Mono';-inkscape-font-specification:'IBM Plex Mono, Bold';font-variant-ligatures:normal;font-variant-caps:normal;font-variant-numeric:normal;font-variant-east-asian:normal;text-align:start;writing-mode:lr-tb;direction:ltr;text-anchor:start;fill:#10cac3;fill-opacity:1;fill-rule:evenodd;stroke-width:1.00894"
       x="-391.41214"
       y="18.603086"
       id="text140"
       transform="scale(0.99113705,1.0089422)"><tspan
         id="tspan140"
         x="-391.41214"
         y="18.603086"
         style="font-style:normal;font-variant:normal;font-weight:bold;font-stretch:normal;font-size:120px;font-family:'IBM Plex Mono';-inkscape-font-specification:'IBM Plex Mono, Bold';font-variant-ligatures:normal;font-variant-caps:normal;font-variant-numeric:normal;font-variant-east-asian:normal;stroke-width:1.00894"><tspan
   style="font-style:normal;font-variant:normal;font-weight:bold;font-stretch:normal;font-size:120px;font-family:'IBM Plex Mono';-inkscape-font-specification:'IBM Plex Mono, Bold';font-variant-ligatures:normal;font-variant-caps:normal;font-variant-numeric:normal;font-variant-east-asian:normal;fill:#e7159c;fill-opacity:1"
   id="tspan141">T</tspan>TY</tspan></text>
  </g>
</svg>
